  0
SECTION
  2
HEADER
  9
$ACADVER
  1
AC1014
  9
$HANDSEED
  5
FFFF
  9
$MEASUREMENT
 70
     1
  0
ENDSEC
  0
SECTION
  2
TABLES
  0
TABLE
  2
VPORT
  5
8
330
0
100
AcDbSymbolTable
 70
     4
  0
VPORT
  5
2E
330
8
100
AcDbSymbolTableRecord
100
AcDbViewportTableRecord
  2
*ACTIVE
 70
     0
 10
0.0
 20
0.0
 11
1.0
 21
1.0
 12
210.0
 22
148.5
 13
0.0
 23
0.0
 14
10.0
 24
10.0
 15
10.0
 25
10.0
 16
0.0
 26
0.0
 36
1.0
 17
0.0
 27
0.0
 37
0.0
 40
341.0
 41
1.24
 42
50.0
 43
0.0
 44
0.0
 50
0.0
 51
0.0
 71
     0
 72
   100
 73
     1
 74
     3
 75
     0
 76
     0
 77
     0
 78
     0
  0
ENDTAB
  0
TABLE
  2
LTYPE
  5
5
330
0
100
AcDbSymbolTable
 70
     1
  0
LTYPE
  5
14
330
5
100
AcDbSymbolTableRecord
100
AcDbLinetypeTableRecord
  2
BYBLOCK
 70
     0
  3

 72
    65
 73
     0
 40
0.0
  0
LTYPE
  5
15
330
5
100
AcDbSymbolTableRecord
100
AcDbLinetypeTableRecord
  2
BYLAYER
 70
     0
  3

 72
    65
 73
     0
 40
0.0
  0
LTYPE
  5
16
330
5
100
AcDbSymbolTableRecord
100
AcDbLinetypeTableRecord
  2
CONTINUOUS
 70
     0
  3
Solid line
 72
    65
 73
     0
 40
0.0
  0
ENDTAB
  0
TABLE
  2
LAYER
  5
2
100
AcDbSymbolTable
 70
1
  0
LAYER
  5
50
100
AcDbSymbolTableRecord
100
AcDbLayerTableRecord
  2
0
 70
0
  6
CONTINUOUS
  0
ENDTAB
  0
TABLE
  2
STYLE
  5
3
330
0
100
AcDbSymbolTable
 70
     1
  0
STYLE
  5
11
330
3
100
AcDbSymbolTableRecord
100
AcDbTextStyleTableRecord
  2
STANDARD
 70
     0
 40
0.0
 41
1.0
 50
0.0
 71
     0
 42
2.5
  3
txt
  4

  0
ENDTAB
  0
TABLE
  2
VIEW
  5
6
330
0
100
AcDbSymbolTable
 70
     0
  0
ENDTAB
  0
TABLE
  2
UCS
  5
7
330
0
100
AcDbSymbolTable
 70
     0
  0
ENDTAB
  0
TABLE
  2
APPID
  5
9
330
0
100
AcDbSymbolTable
 70
     2
  0
APPID
  5
12
330
9
100
AcDbSymbolTableRecord
100
AcDbRegAppTableRecord
  2
ACAD
 70
     0
  0
ENDTAB
  0
TABLE
  2
DIMSTYLE
  5
A
330
0
100
AcDbSymbolTable
 70
     1
  0
DIMSTYLE
105
27
330
A
100
AcDbSymbolTableRecord
100
AcDbDimStyleTableRecord
  2
ISO-25
 70
     0
  3

  4

  5

  6

  7

 40
1.0
 41
2.5
 42
0.625
 43
3.75
 44
1.25
 45
0.0
 46
0.0
 47
0.0
 48
0.0
140
2.5
141
2.5
142
0.0
143
0.03937007874016
144
1.0
145
0.0
146
1.0
147
0.625
 71
     0
 72
     0
 73
     0
 74
     0
 75
     0
 76
     0
 77
     1
 78
     8
170
     0
171
     3
172
     1
173
     0
174
     0
175
     0
176
     0
177
     0
178
     0
270
     2
271
     2
272
     2
273
     2
274
     3
340
11
275
     0
280
     0
281
     0
282
     0
283
     0
284
     8
285
     0
286
     0
287
     3
288
     0
  0
ENDTAB
  0
TABLE
  2
BLOCK_RECORD
  5
1
330
0
100
AcDbSymbolTable
 70
     1
  0
BLOCK_RECORD
  5
1F
330
1
100
AcDbSymbolTableRecord
100
AcDbBlockTableRecord
  2
*MODEL_SPACE
  0
BLOCK_RECORD
  5
1B
330
1
100
AcDbSymbolTableRecord
100
AcDbBlockTableRecord
  2
*PAPER_SPACE
  0
ENDTAB
  0
ENDSEC
  0
SECTION
  2
BLOCKS
  0
BLOCK
  5
20
330
1F
100
AcDbEntity
  8
0
100
AcDbBlockBegin
  2
*MODEL_SPACE
 70
     0
 10
0.0
 20
0.0
 30
0.0
  3
*MODEL_SPACE
  1

  0
ENDBLK
  5
21
330
1F
100
AcDbEntity
  8
0
100
AcDbBlockEnd
  0
BLOCK
  5
1C
330
1B
100
AcDbEntity
 67
     1
  8
0
100
AcDbBlockBegin
  2
*PAPER_SPACE
  1

  0
ENDBLK
  5
1D
330
1B
100
AcDbEntity
 67
     1
  8
0
100
AcDbBlockEnd
  0
ENDSEC
  0
SECTION
  2
ENTITIES
  0
LWPOLYLINE
  5
100
100
AcDbEntity
  8
0
 62
7
100
AcDbPolyline
 90
65
 70
1
 10
57.839703
 20
1.587615
 30
0.0
 10
52.908352
 20
2.425155
 30
0.0
 10
48.735694
 20
3.456113
 30
0.0
 10
44.953786
 20
4.789860
 30
0.0
 10
41.194683
 20
6.535800
 30
0.0
 10
34.874892
 20
10.499310
 30
0.0
 10
29.190292
 20
15.478770
 30
0.0
 10
24.408733
 20
21.200310
 30
0.0
 10
20.798068
 20
27.390080
 30
0.0
 10
20.077446
 20
28.970048
 30
0.0
 10
19.536994
 20
30.209664
 30
0.0
 10
19.197488
 20
31.059596
 30
0.0
 10
19.079703
 20
31.470512
 30
0.0
 10
19.250311
 20
31.551852
 30
0.0
 10
19.714837
 20
31.618467
 30
0.0
 10
20.402337
 20
31.663475
 30
0.0
 10
21.241864
 20
31.680005
 30
0.0
 10
21.782404
 20
31.680005
 30
0.0
 10
22.322944
 20
31.680005
 30
0.0
 10
22.863484
 20
31.680005
 30
0.0
 10
23.404024
 20
31.680005
 30
0.0
 10
23.642563
 20
31.170819
 30
0.0
 10
23.881100
 20
30.661633
 30
0.0
 10
24.119639
 20
30.152448
 30
0.0
 10
24.358177
 20
29.643262
 30
0.0
 10
25.917283
 20
26.649631
 30
0.0
 10
27.721876
 20
23.824278
 30
0.0
 10
29.821214
 20
21.097140
 30
0.0
 10
32.264559
 20
18.398152
 30
0.0
 10
34.946288
 20
15.823200
 30
0.0
 10
37.629701
 20
13.642972
 30
0.0
 10
40.454330
 20
11.754405
 30
0.0
 10
43.559703
 20
10.054417
 30
0.0
 10
51.771277
 20
6.988057
 30
0.0
 10
60.370970
 20
5.681835
 30
0.0
 10
69.041712
 20
6.151125
 30
0.0
 10
77.466427
 20
8.411280
 30
0.0
 10
84.455872
 20
11.913645
 30
0.0
 10
90.674940
 20
16.669972
 30
0.0
 10
95.948077
 20
22.518259
 30
0.0
 10
100.099748
 20
29.296522
 30
0.0
 10
100.392525
 20
29.892393
 30
0.0
 10
100.685302
 20
30.488263
 30
0.0
 10
100.978080
 20
31.084134
 30
0.0
 10
101.270857
 20
31.680004
 30
0.0
 10
101.796960
 20
31.680004
 30
0.0
 10
102.323070
 20
31.680004
 30
0.0
 10
102.849172
 20
31.680004
 30
0.0
 10
103.375282
 20
31.680004
 30
0.0
 10
104.471422
 20
31.665874
 30
0.0
 10
105.109560
 20
31.608394
 30
0.0
 10
105.406657
 20
31.484941
 30
0.0
 10
105.479707
 20
31.272880
 30
0.0
 10
104.950402
 20
29.839425
 30
0.0
 10
103.677442
 20
27.212065
 30
0.0
 10
102.133252
 20
24.316893
 30
0.0
 10
100.790235
 20
22.080007
 30
0.0
 10
94.719135
 20
14.720775
 30
0.0
 10
87.568342
 20
8.907630
 30
0.0
 10
79.410862
 20
4.688415
 30
0.0
 10
70.319709
 20
2.110980
 30
0.0
 10
67.571659
 20
1.795297
 30
0.0
 10
63.851874
 20
1.572495
 30
0.0
 10
60.246007
 20
1.488090
 30
0.0
 10
57.839710
 20
1.587615
 30
0.0
  0
LWPOLYLINE
  5
101
100
AcDbEntity
  8
0
 62
7
100
AcDbPolyline
 90
37
 70
1
 10
58.076585
 20
9.063682
 30
0.0
 10
57.963143
 20
9.188963
 30
0.0
 10
57.833990
 20
9.399712
 30
0.0
 10
57.705020
 20
9.666533
 30
0.0
 10
57.592131
 20
9.960008
 30
0.0
 10
57.431576
 20
10.340198
 30
0.0
 10
57.217381
 20
10.568482
 30
0.0
 10
56.876620
 20
10.690972
 30
0.0
 10
56.336365
 20
10.753747
 30
0.0
 10
55.793289
 20
10.772347
 30
0.0
 10
55.447648
 20
10.709947
 30
0.0
 10
55.222848
 20
10.534410
 30
0.0
 10
55.042297
 20
10.213762
 30
0.0
 10
54.883414
 20
9.943837
 30
0.0
 10
54.687812
 20
9.752205
 30
0.0
 10
54.454173
 20
9.637905
 30
0.0
 10
54.181179
 20
9.600030
 30
0.0
 10
53.961914
 20
9.614205
 30
0.0
 10
53.794753
 20
9.652905
 30
0.0
 10
53.696068
 20
9.710130
 30
0.0
 10
53.682231
 20
9.780030
 30
0.0
 10
53.823124
 20
10.062967
 30
0.0
 10
54.145738
 20
10.700280
 30
0.0
 10
54.602100
 20
11.597467
 30
0.0
 10
55.144237
 20
12.660030
 30
0.0
 10
55.869422
 20
14.037802
 30
0.0
 10
56.371104
 20
14.859720
 30
0.0
 10
56.743195
 20
15.256785
 30
0.0
 10
57.079611
 20
15.360030
 30
0.0
 10
57.398760
 20
15.290355
 30
0.0
 10
57.630576
 20
14.939227
 30
0.0
 10
57.856595
 20
14.093497
 30
0.0
 10
58.158353
 20
12.540030
 30
0.0
 10
58.537587
 20
10.376100
 30
0.0
 10
58.653886
 20
9.224872
 30
0.0
 10
58.501976
 20
8.862142
 30
0.0
 10
58.076585
 20
9.063705
 30
0.0
  0
LWPOLYLINE
  5
102
100
AcDbEntity
  8
0
 62
7
100
AcDbPolyline
 90
16
 70
1
 10
57.239703
 20
12.220380
 30
0.0
 10
57.149506
 20
13.167465
 30
0.0
 10
56.918392
 20
13.605757
 30
0.0
 10
56.605582
 20
13.499130
 30
0.0
 10
56.270293
 20
12.811492
 30
0.0
 10
56.140751
 20
12.368797
 30
0.0
 10
56.103326
 20
12.071610
 30
0.0
 10
56.159726
 20
11.875282
 30
0.0
 10
56.311677
 20
11.735168
 30
0.0
 10
56.715667
 20
11.547082
 30
0.0
 10
57.005899
 20
11.565757
 30
0.0
 10
57.181027
 20
11.790420
 30
0.0
 10
57.239699
 20
12.220410
 30
0.0
 10
57.239699
 20
12.220410
 30
0.0
 10
57.239699
 20
12.220410
 30
0.0
 10
57.239700
 20
12.220410
 30
0.0
  0
LWPOLYLINE
  5
103
100
AcDbEntity
  8
0
 62
7
100
AcDbPolyline
 90
45
 70
1
 10
67.943672
 20
9.642270
 30
0.0
 10
67.634175
 20
10.939215
 30
0.0
 10
67.260047
 20
12.792210
 30
0.0
 10
66.960967
 20
14.468895
 30
0.0
 10
66.876617
 20
15.236925
 30
0.0
 10
67.496429
 20
15.444097
 30
0.0
 10
68.684426
 20
15.700612
 30
0.0
 10
69.872420
 20
15.897937
 30
0.0
 10
70.492224
 20
15.927562
 30
0.0
 10
70.708512
 20
15.664890
 30
0.0
 10
70.571622
 20
15.389640
 30
0.0
 10
70.108408
 20
15.125925
 30
0.0
 10
69.345721
 20
14.897872
 30
0.0
 10
68.614906
 20
14.717752
 30
0.0
 10
68.223880
 20
14.547945
 30
0.0
 10
68.078775
 20
14.318550
 30
0.0
 10
68.085750
 20
13.959682
 30
0.0
 10
68.156242
 20
13.607715
 30
0.0
 10
68.327725
 20
13.415835
 30
0.0
 10
68.695615
 20
13.335960
 30
0.0
 10
69.355325
 20
13.319985
 30
0.0
 10
69.937499
 20
13.301010
 30
0.0
 10
70.317710
 20
13.235760
 30
0.0
 10
70.535317
 20
13.111852
 30
0.0
 10
70.629680
 20
12.916800
 30
0.0
 10
70.615505
 20
12.713647
 30
0.0
 10
70.459399
 20
12.562732
 30
0.0
 10
70.128870
 20
12.446182
 30
0.0
 10
69.591428
 20
12.346147
 30
0.0
 10
69.312177
 20
12.304297
 30
0.0
 10
69.032926
 20
12.262447
 30
0.0
 10
68.753674
 20
12.220597
 30
0.0
 10
68.474423
 20
12.178747
 30
0.0
 10
68.515568
 20
11.901412
 30
0.0
 10
68.556713
 20
11.624077
 30
0.0
 10
68.597858
 20
11.346735
 30
0.0
 10
68.639003
 20
11.069400
 30
0.0
 10
68.705911
 20
10.620847
 30
0.0
 10
68.766421
 20
10.219605
 30
0.0
 10
68.813888
 20
9.909487
 30
0.0
 10
68.841661
 20
9.734302
 30
0.0
 10
68.741575
 20
9.519360
 30
0.0
 10
68.454710
 20
9.421740
 30
0.0
 10
68.136831
 20
9.457440
 30
0.0
 10
67.943701
 20
9.642345
 30
0.0
  0
LWPOLYLINE
  5
104
100
AcDbEntity
  8
0
 62
7
100
AcDbPolyline
 90
41
 70
1
 10
43.667803
 20
13.543410
 30
0.0
 10
42.902703
 20
14.015392
 30
0.0
 10
42.255588
 20
14.679255
 30
0.0
 10
41.808543
 20
15.428947
 30
0.0
 10
41.643651
 20
16.158427
 30
0.0
 10
41.808817
 20
17.030152
 30
0.0
 10
42.241003
 20
17.932687
 30
0.0
 10
42.857890
 20
18.732442
 30
0.0
 10
43.577163
 20
19.295842
 30
0.0
 10
44.437248
 20
19.588935
 30
0.0
 10
45.326371
 20
19.584435
 30
0.0
 10
46.185552
 20
19.291717
 30
0.0
 10
46.955813
 20
18.721147
 30
0.0
 10
47.440263
 20
18.029857
 30
0.0
 10
47.663032
 20
17.308020
 30
0.0
 10
47.598164
 20
16.763752
 30
0.0
 10
47.219704
 20
16.605195
 30
0.0
 10
47.050624
 20
16.678320
 30
0.0
 10
46.900735
 20
16.818232
 30
0.0
 10
46.786314
 20
17.004832
 30
0.0
 10
46.723636
 20
17.218012
 30
0.0
 10
46.496493
 20
17.731462
 30
0.0
 10
46.035001
 20
18.216922
 30
0.0
 10
45.456843
 20
18.578505
 30
0.0
 10
44.879702
 20
18.720345
 30
0.0
 10
43.951354
 20
18.400507
 30
0.0
 10
43.189155
 20
17.604502
 30
0.0
 10
42.754178
 20
16.577595
 30
0.0
 10
42.807496
 20
15.565050
 30
0.0
 10
43.115243
 20
14.973967
 30
0.0
 10
43.522401
 20
14.607375
 30
0.0
 10
44.064606
 20
14.445427
 30
0.0
 10
44.777495
 20
14.468302
 30
0.0
 10
45.242930
 20
14.511577
 30
0.0
 10
45.566453
 20
14.491852
 30
0.0
 10
45.772891
 20
14.404162
 30
0.0
 10
45.887068
 20
14.243452
 30
0.0
 10
45.819343
 20
13.751752
 30
0.0
 10
45.306854
 20
13.433385
 30
0.0
 10
44.529653
 20
13.345132
 30
0.0
 10
43.667799
 20
13.543747
 30
0.0
  0
LWPOLYLINE
  5
105
100
AcDbEntity
  8
0
 62
7
100
AcDbPolyline
 90
60
 70
1
 10
78.854498
 20
16.212982
 30
0.0
 10
78.277785
 20
17.205637
 30
0.0
 10
77.822925
 20
18.035947
 30
0.0
 10
77.535615
 20
18.617002
 30
0.0
 10
77.461590
 20
18.861885
 30
0.0
 10
78.028035
 20
19.251120
 30
0.0
 10
79.031318
 20
19.849972
 30
0.0
 10
80.021535
 20
20.399310
 30
0.0
 10
80.548793
 20
20.640007
 30
0.0
 10
80.630693
 20
20.605582
 30
0.0
 10
80.697743
 20
20.511952
 30
0.0
 10
80.743043
 20
20.373382
 30
0.0
 10
80.759692
 20
20.204167
 30
0.0
 10
80.689793
 20
19.987710
 30
0.0
 10
80.493263
 20
19.739565
 30
0.0
 10
80.189955
 20
19.479877
 30
0.0
 10
79.799715
 20
19.228807
 30
0.0
 10
79.194548
 20
18.836677
 30
0.0
 10
78.904208
 20
18.484560
 30
0.0
 10
78.903458
 20
18.108735
 30
0.0
 10
79.166273
 20
17.645490
 30
0.0
 10
79.365218
 20
17.403930
 30
0.0
 10
79.547918
 20
17.331555
 30
0.0
 10
79.804050
 20
17.434680
 30
0.0
 10
80.223315
 20
17.719582
 30
0.0
 10
80.768265
 20
18.070867
 30
0.0
 10
81.145500
 20
18.213150
 30
0.0
 10
81.396345
 20
18.151725
 30
0.0
 10
81.562148
 20
17.891970
 30
0.0
 10
81.563648
 20
17.710087
 30
0.0
 10
81.444330
 20
17.501197
 30
0.0
 10
81.210428
 20
17.272800
 30
0.0
 10
80.868015
 20
17.032395
 30
0.0
 10
80.546580
 20
16.824870
 30
0.0
 10
80.283353
 20
16.638052
 30
0.0
 10
80.105498
 20
16.492410
 30
0.0
 10
80.040173
 20
16.408417
 30
0.0
 10
80.159655
 20
16.055625
 30
0.0
 10
80.434298
 20
15.543870
 30
0.0
 10
80.738423
 20
15.084142
 30
0.0
 10
80.946338
 20
14.887402
 30
0.0
 10
81.089588
 20
14.937127
 30
0.0
 10
81.351113
 20
15.066525
 30
0.0
 10
81.693705
 20
15.256050
 30
0.0
 10
82.080173
 20
15.486172
 30
0.0
 10
82.784205
 20
15.878707
 30
0.0
 10
83.269313
 20
16.049865
 30
0.0
 10
83.549850
 20
16.001940
 30
0.0
 10
83.640173
 20
15.737272
 30
0.0
 10
83.231378
 20
15.278782
 30
0.0
 10
82.295925
 20
14.586787
 30
0.0
 10
81.270202
 20
13.955685
 30
0.0
 10
80.590605
 20
13.679895
 30
0.0
 10
80.383492
 20
13.879762
 30
0.0
 10
79.987215
 20
14.423955
 30
0.0
 10
79.458720
 20
15.229365
 30
0.0
 10
78.854970
 20
16.212870
 30
0.0
 10
78.854970
 20
16.212877
 30
0.0
 10
78.854970
 20
16.212885
 30
0.0
 10
78.854970
 20
16.212892
 30
0.0
  0
LWPOLYLINE
  5
106
100
AcDbEntity
  8
0
 62
7
100
AcDbPolyline
 90
49
 70
1
 10
60.239701
 20
18.632895
 30
0.0
 10
55.199125
 20
19.419562
 30
0.0
 10
50.686789
 20
20.855985
 30
0.0
 10
46.544662
 20
23.007684
 30
0.0
 10
42.614707
 20
25.940173
 30
0.0
 10
41.207867
 20
27.308913
 30
0.0
 10
39.625432
 20
29.048784
 30
0.0
 10
38.333882
 20
30.622026
 30
0.0
 10
37.799703
 20
31.490880
 30
0.0
 10
37.951203
 20
31.564312
 30
0.0
 10
38.363703
 20
31.624447
 30
0.0
 10
38.974203
 20
31.665082
 30
0.0
 10
39.719703
 20
31.680007
 30
0.0
 10
40.465203
 20
31.664685
 30
0.0
 10
41.075703
 20
31.622962
 30
0.0
 10
41.488203
 20
31.561215
 30
0.0
 10
41.639703
 20
31.485811
 30
0.0
 10
42.304183
 20
30.631640
 30
0.0
 10
43.892671
 20
29.075356
 30
0.0
 10
45.797743
 20
27.381979
 30
0.0
 10
47.411969
 20
26.116529
 30
0.0
 10
55.791178
 20
22.420868
 30
0.0
 10
64.741458
 20
21.897420
 30
0.0
 10
73.377865
 20
24.444364
 30
0.0
 10
80.815455
 20
29.959883
 30
0.0
 10
81.219390
 20
30.389915
 30
0.0
 10
81.623332
 20
30.819947
 30
0.0
 10
82.027275
 20
31.249979
 30
0.0
 10
82.431210
 20
31.680011
 30
0.0
 10
82.882267
 20
31.680011
 30
0.0
 10
83.333332
 20
31.680011
 30
0.0
 10
83.784397
 20
31.680011
 30
0.0
 10
84.235455
 20
31.680011
 30
0.0
 10
84.936007
 20
31.669984
 30
0.0
 10
85.509705
 20
31.642684
 30
0.0
 10
85.897335
 20
31.602281
 30
0.0
 10
86.039700
 20
31.552946
 30
0.0
 10
85.699882
 20
30.993736
 30
0.0
 10
84.837067
 20
29.904349
 30
0.0
 10
83.686207
 20
28.567837
 30
0.0
 10
82.482255
 20
27.267250
 30
0.0
 10
79.027087
 20
24.273016
 30
0.0
 10
75.065460
 20
21.811672
 30
0.0
 10
70.841591
 20
20.010382
 30
0.0
 10
66.599701
 20
18.996337
 30
0.0
 10
64.827178
 20
18.791317
 30
0.0
 10
63.040199
 20
18.654622
 30
0.0
 10
61.442971
 20
18.597922
 30
0.0
 10
60.239701
 20
18.632872
 30
0.0
  0
LWPOLYLINE
  5
107
100
AcDbEntity
  8
0
 62
7
100
AcDbPolyline
 90
81
 70
1
 10
63.086821
 20
34.793160
 30
0.0
 10
61.239342
 20
35.447809
 30
0.0
 10
59.423060
 20
36.555318
 30
0.0
 10
57.805309
 20
37.991726
 30
0.0
 10
56.553418
 20
39.633075
 30
0.0
 10
56.010508
 20
40.864445
 30
0.0
 10
55.538656
 20
42.500026
 30
0.0
 10
55.205757
 20
44.253862
 30
0.0
 10
55.079703
 20
45.840004
 30
0.0
 10
55.209822
 20
47.477032
 30
0.0
 10
55.559681
 20
49.260029
 30
0.0
 10
56.068534
 20
50.943754
 30
0.0
 10
56.675633
 20
52.282967
 30
0.0
 10
57.512059
 20
53.462673
 30
0.0
 10
58.568652
 20
54.558140
 30
0.0
 10
59.779753
 20
55.510088
 30
0.0
 10
61.079701
 20
56.259235
 30
0.0
 10
62.017483
 20
56.672611
 30
0.0
 10
62.847208
 20
56.894181
 30
0.0
 10
63.936312
 20
56.983470
 30
0.0
 10
65.652234
 20
57.000007
 30
0.0
 10
67.400597
 20
56.985000
 30
0.0
 10
68.482478
 20
56.891102
 30
0.0
 10
69.309556
 20
56.644978
 30
0.0
 10
70.293512
 20
56.173297
 30
0.0
 10
71.499014
 20
55.449133
 30
0.0
 10
72.519309
 20
54.591613
 30
0.0
 10
73.362968
 20
53.592202
 30
0.0
 10
74.038562
 20
52.442365
 30
0.0
 10
74.457101
 20
51.442969
 30
0.0
 10
74.482609
 20
50.821312
 30
0.0
 10
74.061377
 20
50.441488
 30
0.0
 10
73.139704
 20
50.167594
 30
0.0
 10
72.581390
 20
50.039072
 30
0.0
 10
72.081371
 20
49.917402
 30
0.0
 10
71.694277
 20
49.816303
 30
0.0
 10
71.474741
 20
49.749493
 30
0.0
 10
71.326766
 20
49.779636
 30
0.0
 10
71.134522
 20
49.942516
 30
0.0
 10
70.922882
 20
50.211534
 30
0.0
 10
70.716716
 20
50.560092
 30
0.0
 10
69.401168
 20
52.227132
 30
0.0
 10
67.597094
 20
53.226729
 30
0.0
 10
65.457280
 20
53.509216
 30
0.0
 10
63.134509
 20
53.024926
 30
0.0
 10
61.953706
 20
52.415444
 30
0.0
 10
60.979628
 20
51.545650
 30
0.0
 10
60.207843
 20
50.410451
 30
0.0
 10
59.633917
 20
49.004758
 30
0.0
 10
59.179307
 20
46.482290
 30
0.0
 10
59.312057
 20
43.993271
 30
0.0
 10
59.993483
 20
41.761980
 30
0.0
 10
61.184899
 20
40.012696
 30
0.0
 10
63.459891
 20
38.581655
 30
0.0
 10
66.036254
 20
38.226604
 30
0.0
 10
68.477475
 20
38.918259
 30
0.0
 10
70.347041
 20
40.627336
 30
0.0
 10
70.646912
 20
41.082518
 30
0.0
 10
70.910932
 20
41.473726
 30
0.0
 10
71.110550
 20
41.759283
 30
0.0
 10
71.217214
 20
41.897510
 30
0.0
 10
71.390363
 20
41.913695
 30
0.0
 10
71.770985
 20
41.866955
 30
0.0
 10
72.302887
 20
41.766365
 30
0.0
 10
72.929876
 20
41.620998
 30
0.0
 10
73.981436
 20
41.300942
 30
0.0
 10
74.460748
 20
40.911717
 30
0.0
 10
74.445875
 20
40.282081
 30
0.0
 10
74.014873
 20
39.240790
 30
0.0
 10
73.339529
 20
38.131281
 30
0.0
 10
72.412458
 20
37.096468
 30
0.0
 10
71.289877
 20
36.189607
 30
0.0
 10
70.028000
 20
35.463953
 30
0.0
 10
69.185294
 20
35.105854
 30
0.0
 10
68.396572
 20
34.878319
 30
0.0
 10
67.493565
 20
34.745503
 30
0.0
 10
66.308000
 20
34.671560
 30
0.0
 10
65.364452
 20
34.653020
 30
0.0
 10
64.442609
 20
34.669775
 30
0.0
 10
63.648168
 20
34.717820
 30
0.0
 10
63.086825
 20
34.793159
 30
0.0
  0
LWPOLYLINE
  5
108
100
AcDbEntity
  8
0
 62
7
100
AcDbPolyline
 90
100
 70
1
 10
3.959703
 20
45.840004
 30
0.0
 10
3.959703
 20
48.600004
 30
0.0
 10
3.959703
 20
51.360004
 30
0.0
 10
3.959703
 20
54.120004
 30
0.0
 10
3.959703
 20
56.880004
 30
0.0
 10
4.485022
 20
56.880004
 30
0.0
 10
5.010340
 20
56.880004
 30
0.0
 10
5.535659
 20
56.880004
 30
0.0
 10
6.060977
 20
56.880004
 30
0.0
 10
6.586296
 20
56.880004
 30
0.0
 10
7.111614
 20
56.880004
 30
0.0
 10
7.636933
 20
56.880004
 30
0.0
 10
8.162251
 20
56.880004
 30
0.0
 10
8.224524
 20
56.685004
 30
0.0
 10
8.286789
 20
56.490004
 30
0.0
 10
8.349054
 20
56.295005
 30
0.0
 10
8.411319
 20
56.100005
 30
0.0
 10
9.824999
 20
51.815704
 30
0.0
 10
11.246080
 20
47.727521
 30
0.0
 10
12.374285
 20
44.676383
 30
0.0
 10
12.909340
 20
43.503217
 30
0.0
 10
13.718491
 20
45.544184
 30
0.0
 10
15.333533
 20
50.012986
 30
0.0
 10
16.918708
 20
54.556100
 30
0.0
 10
17.638258
 20
56.820004
 30
0.0
 10
17.799799
 20
56.843299
 30
0.0
 10
18.238537
 20
56.862379
 30
0.0
 10
18.887494
 20
56.875272
 30
0.0
 10
19.679697
 20
56.879997
 30
0.0
 10
20.189697
 20
56.879997
 30
0.0
 10
20.699697
 20
56.879997
 30
0.0
 10
21.209697
 20
56.879997
 30
0.0
 10
21.719697
 20
56.879997
 30
0.0
 10
21.719697
 20
54.119997
 30
0.0
 10
21.719697
 20
51.359997
 30
0.0
 10
21.719697
 20
48.599996
 30
0.0
 10
21.719697
 20
45.839996
 30
0.0
 10
21.719697
 20
43.079996
 30
0.0
 10
21.719697
 20
40.319996
 30
0.0
 10
21.719697
 20
37.559995
 30
0.0
 10
21.719697
 20
34.799995
 30
0.0
 10
21.269697
 20
34.799995
 30
0.0
 10
20.819697
 20
34.799995
 30
0.0
 10
20.369697
 20
34.799995
 30
0.0
 10
19.919697
 20
34.799995
 30
0.0
 10
19.469697
 20
34.799995
 30
0.0
 10
19.019697
 20
34.799995
 30
0.0
 10
18.569697
 20
34.799995
 30
0.0
 10
18.119697
 20
34.799995
 30
0.0
 10
18.119697
 20
36.461995
 30
0.0
 10
18.119697
 20
38.123995
 30
0.0
 10
18.119697
 20
39.785995
 30
0.0
 10
18.119697
 20
41.447995
 30
0.0
 10
18.103767
 20
44.060113
 30
0.0
 10
18.059869
 20
46.120543
 30
0.0
 10
17.993832
 20
47.449699
 30
0.0
 10
17.911472
 20
47.867996
 30
0.0
 10
17.694151
 20
47.358109
 30
0.0
 10
17.256361
 20
46.138346
 30
0.0
 10
16.661684
 20
44.391409
 30
0.0
 10
15.973704
 20
42.299995
 30
0.0
 10
15.541318
 20
40.964995
 30
0.0
 10
15.108931
 20
39.629995
 30
0.0
 10
14.676544
 20
38.294995
 30
0.0
 10
14.244158
 20
36.959995
 30
0.0
 10
13.903600
 20
36.961120
 30
0.0
 10
13.563042
 20
36.962245
 30
0.0
 10
13.222484
 20
36.963295
 30
0.0
 10
12.881926
 20
36.964420
 30
0.0
 10
12.541368
 20
36.965545
 30
0.0
 10
12.200809
 20
36.966595
 30
0.0
 10
11.860252
 20
36.967720
 30
0.0
 10
11.519694
 20
36.968770
 30
0.0
 10
11.072203
 20
38.347687
 30
0.0
 10
10.624711
 20
39.726604
 30
0.0
 10
10.177220
 20
41.105521
 30
0.0
 10
9.729729
 20
42.484438
 30
0.0
 10
9.019724
 20
44.626069
 30
0.0
 10
8.409744
 20
46.379879
 30
0.0
 10
7.964755
 20
47.564887
 30
0.0
 10
7.749729
 20
48.000107
 30
0.0
 10
7.675944
 20
47.479326
 30
0.0
 10
7.615516
 20
46.061357
 30
0.0
 10
7.574686
 20
43.962763
 30
0.0
 10
7.559694
 20
41.400106
 30
0.0
 10
7.559694
 20
39.750106
 30
0.0
 10
7.559694
 20
38.100106
 30
0.0
 10
7.559694
 20
36.450106
 30
0.0
 10
7.559694
 20
34.800106
 30
0.0
 10
7.109694
 20
34.800106
 30
0.0
 10
6.659694
 20
34.800106
 30
0.0
 10
6.209694
 20
34.800106
 30
0.0
 10
5.759694
 20
34.800106
 30
0.0
 10
5.309694
 20
34.800106
 30
0.0
 10
4.859694
 20
34.800106
 30
0.0
 10
4.409694
 20
34.800106
 30
0.0
 10
3.959694
 20
34.800106
 30
0.0
 10
3.959694
 20
37.560030
 30
0.0
 10
3.959694
 20
40.320022
 30
0.0
 10
3.959694
 20
43.080013
 30
0.0
  0
LWPOLYLINE
  5
109
100
AcDbEntity
  8
0
 62
7
100
AcDbPolyline
 90
32
 70
1
 10
26.759703
 20
45.840004
 30
0.0
 10
26.759703
 20
48.600004
 30
0.0
 10
26.759703
 20
51.360004
 30
0.0
 10
26.759703
 20
54.120004
 30
0.0
 10
26.759703
 20
56.880004
 30
0.0
 10
27.269703
 20
56.880004
 30
0.0
 10
27.779703
 20
56.880004
 30
0.0
 10
28.289703
 20
56.880004
 30
0.0
 10
28.799703
 20
56.880004
 30
0.0
 10
29.309703
 20
56.880004
 30
0.0
 10
29.819703
 20
56.880004
 30
0.0
 10
30.329703
 20
56.880004
 30
0.0
 10
30.839703
 20
56.880004
 30
0.0
 10
30.839703
 20
54.120004
 30
0.0
 10
30.839703
 20
51.360004
 30
0.0
 10
30.839703
 20
48.600004
 30
0.0
 10
30.839703
 20
45.840004
 30
0.0
 10
30.839703
 20
43.080004
 30
0.0
 10
30.839703
 20
40.320003
 30
0.0
 10
30.839703
 20
37.560003
 30
0.0
 10
30.839703
 20
34.800003
 30
0.0
 10
30.329703
 20
34.800003
 30
0.0
 10
29.819703
 20
34.800003
 30
0.0
 10
29.309703
 20
34.800003
 30
0.0
 10
28.799703
 20
34.800003
 30
0.0
 10
28.289703
 20
34.800003
 30
0.0
 10
27.779703
 20
34.800003
 30
0.0
 10
27.269703
 20
34.800003
 30
0.0
 10
26.759703
 20
34.800003
 30
0.0
 10
26.759703
 20
37.560003
 30
0.0
 10
26.759703
 20
40.320003
 30
0.0
 10
26.759703
 20
43.080004
 30
0.0
  0
LWPOLYLINE
  5
10a
100
AcDbEntity
  8
0
 62
7
100
AcDbPolyline
 90
40
 70
1
 10
35.399703
 20
45.857381
 30
0.0
 10
35.399703
 20
48.621725
 30
0.0
 10
35.399703
 20
51.386070
 30
0.0
 10
35.399703
 20
54.150414
 30
0.0
 10
35.399703
 20
56.914759
 30
0.0
 10
36.644703
 20
56.895416
 30
0.0
 10
37.889703
 20
56.876074
 30
0.0
 10
39.134703
 20
56.856731
 30
0.0
 10
40.379703
 20
56.837389
 30
0.0
 10
41.624703
 20
56.818046
 30
0.0
 10
42.869703
 20
56.798704
 30
0.0
 10
44.114703
 20
56.779361
 30
0.0
 10
45.359703
 20
56.760019
 30
0.0
 10
45.766219
 20
56.567461
 30
0.0
 10
46.172734
 20
56.374905
 30
0.0
 10
46.579249
 20
56.182348
 30
0.0
 10
46.985765
 20
55.989791
 30
0.0
 10
48.940629
 20
54.752042
 30
0.0
 10
50.552074
 20
53.093606
 30
0.0
 10
51.746960
 20
51.109422
 30
0.0
 10
52.452142
 20
48.894428
 30
0.0
 10
52.621741
 20
47.455493
 30
0.0
 10
52.669944
 20
45.756355
 30
0.0
 10
52.598619
 20
44.070604
 30
0.0
 10
52.409638
 20
42.671830
 30
0.0
 10
51.434673
 20
39.994917
 30
0.0
 10
49.797240
 20
37.758310
 30
0.0
 10
47.606815
 20
36.074142
 30
0.0
 10
44.972873
 20
35.054546
 30
0.0
 10
44.227806
 20
34.959810
 30
0.0
 10
42.977695
 20
34.881348
 30
0.0
 10
41.396881
 20
34.827318
 30
0.0
 10
39.659701
 20
34.805883
 30
0.0
 10
38.594701
 20
34.804458
 30
0.0
 10
37.529701
 20
34.802958
 30
0.0
 10
36.464701
 20
34.801533
 30
0.0
 10
35.399701
 20
34.800033
 30
0.0
 10
35.399701
 20
37.564373
 30
0.0
 10
35.399701
 20
40.328713
 30
0.0
 10
35.399701
 20
43.093053
 30
0.0
  0
LWPOLYLINE
  5
10b
100
AcDbEntity
  8
0
 62
7
100
AcDbPolyline
 90
36
 70
1
 10
43.215625
 20
38.655991
 30
0.0
 10
44.720595
 20
39.085618
 30
0.0
 10
45.997048
 20
39.791380
 30
0.0
 10
47.042258
 20
40.771298
 30
0.0
 10
47.853505
 20
42.023395
 30
0.0
 10
48.253590
 20
42.889150
 30
0.0
 10
48.478596
 20
43.631194
 30
0.0
 10
48.577606
 20
44.492385
 30
0.0
 10
48.599701
 20
45.715582
 30
0.0
 10
48.407358
 20
48.122728
 30
0.0
 10
47.796000
 20
49.982063
 30
0.0
 10
46.714129
 20
51.393049
 30
0.0
 10
45.110251
 20
52.455141
 30
0.0
 10
44.369171
 20
52.774478
 30
0.0
 10
43.617508
 20
52.992528
 30
0.0
 10
42.743443
 20
53.134020
 30
0.0
 10
41.635150
 20
53.223685
 30
0.0
 10
41.096288
 20
53.254413
 30
0.0
 10
40.557427
 20
53.285133
 30
0.0
 10
40.018564
 20
53.315860
 30
0.0
 10
39.479703
 20
53.346588
 30
0.0
 10
39.479703
 20
51.518265
 30
0.0
 10
39.479703
 20
49.689943
 30
0.0
 10
39.479703
 20
47.861620
 30
0.0
 10
39.479703
 20
46.033297
 30
0.0
 10
39.492325
 20
43.181059
 30
0.0
 10
39.526698
 20
40.821286
 30
0.0
 10
39.577570
 20
39.199198
 30
0.0
 10
39.639693
 20
38.560009
 30
0.0
 10
40.073311
 20
38.433321
 30
0.0
 10
40.914387
 20
38.409786
 30
0.0
 10
42.012096
 20
38.485360
 30
0.0
 10
43.215614
 20
38.655992
 30
0.0
 10
43.215614
 20
38.655992
 30
0.0
 10
43.215614
 20
38.655993
 30
0.0
 10
43.215614
 20
38.655993
 30
0.0
  0
LWPOLYLINE
  5
10c
100
AcDbEntity
  8
0
 62
7
100
AcDbPolyline
 90
32
 70
1
 10
77.879700
 20
45.840004
 30
0.0
 10
77.879700
 20
48.600004
 30
0.0
 10
77.879700
 20
51.360004
 30
0.0
 10
77.879700
 20
54.120004
 30
0.0
 10
77.879700
 20
56.880004
 30
0.0
 10
78.389700
 20
56.880004
 30
0.0
 10
78.899700
 20
56.880004
 30
0.0
 10
79.409700
 20
56.880004
 30
0.0
 10
79.919700
 20
56.880004
 30
0.0
 10
80.429700
 20
56.880004
 30
0.0
 10
80.939700
 20
56.880004
 30
0.0
 10
81.449700
 20
56.880004
 30
0.0
 10
81.959700
 20
56.880004
 30
0.0
 10
81.959700
 20
54.120004
 30
0.0
 10
81.959700
 20
51.360004
 30
0.0
 10
81.959700
 20
48.600004
 30
0.0
 10
81.959700
 20
45.840004
 30
0.0
 10
81.959700
 20
43.080004
 30
0.0
 10
81.959700
 20
40.320003
 30
0.0
 10
81.959700
 20
37.560003
 30
0.0
 10
81.959700
 20
34.800003
 30
0.0
 10
81.449700
 20
34.800003
 30
0.0
 10
80.939700
 20
34.800003
 30
0.0
 10
80.429700
 20
34.800003
 30
0.0
 10
79.919700
 20
34.800003
 30
0.0
 10
79.409700
 20
34.800003
 30
0.0
 10
78.899700
 20
34.800003
 30
0.0
 10
78.389700
 20
34.800003
 30
0.0
 10
77.879700
 20
34.800003
 30
0.0
 10
77.879700
 20
37.560003
 30
0.0
 10
77.879700
 20
40.320003
 30
0.0
 10
77.879700
 20
43.080004
 30
0.0
  0
LWPOLYLINE
  5
10d
100
AcDbEntity
  8
0
 62
7
100
AcDbPolyline
 90
65
 70
0
 10
91.799700
 20
44.032832
 30
0.0
 10
91.799700
 20
46.341040
 30
0.0
 10
91.799700
 20
48.649248
 30
0.0
 10
91.799700
 20
50.957456
 30
0.0
 10
91.799700
 20
53.265664
 30
0.0
 10
91.034700
 20
53.282456
 30
0.0
 10
90.269700
 20
53.299249
 30
0.0
 10
89.504700
 20
53.316041
 30
0.0
 10
88.739700
 20
53.332834
 30
0.0
 10
87.974700
 20
53.349626
 30
0.0
 10
87.209700
 20
53.366419
 30
0.0
 10
86.444700
 20
53.383211
 30
0.0
 10
85.679700
 20
53.400004
 30
0.0
 10
85.662075
 20
53.835004
 30
0.0
 10
85.644450
 20
54.270005
 30
0.0
 10
85.626825
 20
54.705005
 30
0.0
 10
85.609200
 20
55.140005
 30
0.0
 10
85.591575
 20
55.575004
 30
0.0
 10
85.573950
 20
56.010005
 30
0.0
 10
85.556325
 20
56.445004
 30
0.0
 10
85.538700
 20
56.880004
 30
0.0
 10
87.596963
 20
56.880004
 30
0.0
 10
89.655225
 20
56.880004
 30
0.0
 10
91.713480
 20
56.880004
 30
0.0
 10
93.771743
 20
56.880004
 30
0.0
 10
95.830005
 20
56.880004
 30
0.0
 10
97.888260
 20
56.880004
 30
0.0
 10
99.946523
 20
56.880004
 30
0.0
 10
102.004778
 20
56.880004
 30
0.0
 10
102.001028
 20
56.445004
 30
0.0
 10
101.997278
 20
56.010005
 30
0.0
 10
101.993528
 20
55.575004
 30
0.0
 10
101.989778
 20
55.140005
 30
0.0
 10
101.986028
 20
54.705005
 30
0.0
 10
101.982278
 20
54.270005
 30
0.0
 10
101.978528
 20
53.835004
 30
0.0
 10
101.974778
 20
53.400004
 30
0.0
 10
101.212680
 20
53.383211
 30
0.0
 10
100.450583
 20
53.366419
 30
0.0
 10
99.688485
 20
53.349626
 30
0.0
 10
98.926388
 20
53.332834
 30
0.0
 10
98.164283
 20
53.316041
 30
0.0
 10
97.402185
 20
53.299249
 30
0.0
 10
96.640080
 20
53.282456
 30
0.0
 10
95.877975
 20
53.265664
 30
0.0
 10
95.877975
 20
50.957456
 30
0.0
 10
95.877975
 20
48.649248
 30
0.0
 10
95.877975
 20
46.341040
 30
0.0
 10
95.877975
 20
44.032832
 30
0.0
 10
95.877975
 20
41.724625
 30
0.0
 10
95.877975
 20
39.416418
 30
0.0
 10
95.877975
 20
37.108211
 30
0.0
 10
95.877975
 20
34.800003
 30
0.0
 10
95.367975
 20
34.800003
 30
0.0
 10
94.857975
 20
34.800003
 30
0.0
 10
94.347975
 20
34.800003
 30
0.0
 10
93.837975
 20
34.800003
 30
0.0
 10
93.327975
 20
34.800003
 30
0.0
 10
92.817975
 20
34.800003
 30
0.0
 10
92.307975
 20
34.800003
 30
0.0
 10
91.797975
 20
34.800003
 30
0.0
 10
91.797975
 20
37.108211
 30
0.0
 10
91.797975
 20
39.416418
 30
0.0
 10
91.797975
 20
41.724625
 30
0.0
 10
91.799475
 20
44.032832
 30
0.0
  0
LWPOLYLINE
  5
10e
100
AcDbEntity
  8
0
 62
7
100
AcDbPolyline
 90
73
 70
0
 10
110.279475
 20
39.611727
 30
0.0
 10
110.279475
 20
40.814659
 30
0.0
 10
110.279475
 20
42.017590
 30
0.0
 10
110.279475
 20
43.220522
 30
0.0
 10
110.279475
 20
44.423454
 30
0.0
 10
109.498005
 20
45.982793
 30
0.0
 10
108.716542
 20
47.542133
 30
0.0
 10
107.935072
 20
49.101473
 30
0.0
 10
107.153610
 20
50.660812
 30
0.0
 10
106.372140
 20
52.220152
 30
0.0
 10
105.590670
 20
53.779493
 30
0.0
 10
104.809207
 20
55.338833
 30
0.0
 10
104.027738
 20
56.898173
 30
0.0
 10
104.575590
 20
56.880900
 30
0.0
 10
105.123435
 20
56.863628
 30
0.0
 10
105.671288
 20
56.846355
 30
0.0
 10
106.219140
 20
56.829083
 30
0.0
 10
106.766992
 20
56.811810
 30
0.0
 10
107.314845
 20
56.794538
 30
0.0
 10
107.862697
 20
56.777265
 30
0.0
 10
108.410550
 20
56.759993
 30
0.0
 10
108.891645
 20
55.724993
 30
0.0
 10
109.372747
 20
54.689993
 30
0.0
 10
109.853842
 20
53.654992
 30
0.0
 10
110.334945
 20
52.619992
 30
0.0
 10
111.094972
 20
51.012508
 30
0.0
 10
111.741780
 20
49.696117
 30
0.0
 10
112.206885
 20
48.806664
 30
0.0
 10
112.421812
 20
48.479992
 30
0.0
 10
112.635412
 20
48.810927
 30
0.0
 10
113.096902
 20
49.711988
 30
0.0
 10
113.738370
 20
51.045560
 30
0.0
 10
114.491872
 20
52.674023
 30
0.0
 10
114.968775
 20
53.722532
 30
0.0
 10
115.445670
 20
54.771039
 30
0.0
 10
115.922573
 20
55.819547
 30
0.0
 10
116.399475
 20
56.868055
 30
0.0
 10
116.943368
 20
56.869555
 30
0.0
 10
117.487268
 20
56.871055
 30
0.0
 10
118.031160
 20
56.872555
 30
0.0
 10
118.575060
 20
56.874055
 30
0.0
 10
119.118953
 20
56.875555
 30
0.0
 10
119.662853
 20
56.877055
 30
0.0
 10
120.206745
 20
56.878555
 30
0.0
 10
120.750645
 20
56.880055
 30
0.0
 10
119.954325
 20
55.305055
 30
0.0
 10
119.158005
 20
53.730055
 30
0.0
 10
118.361685
 20
52.155054
 30
0.0
 10
117.565365
 20
50.580054
 30
0.0
 10
116.769045
 20
49.005054
 30
0.0
 10
115.972725
 20
47.430054
 30
0.0
 10
115.176405
 20
45.855054
 30
0.0
 10
114.380085
 20
44.280054
 30
0.0
 10
114.377835
 20
43.095054
 30
0.0
 10
114.375585
 20
41.910053
 30
0.0
 10
114.373335
 20
40.725053
 30
0.0
 10
114.371085
 20
39.540053
 30
0.0
 10
114.368835
 20
38.355050
 30
0.0
 10
114.366585
 20
37.170046
 30
0.0
 10
114.364335
 20
35.985043
 30
0.0
 10
114.362085
 20
34.800039
 30
0.0
 10
113.852085
 20
34.800039
 30
0.0
 10
113.342085
 20
34.800039
 30
0.0
 10
112.832085
 20
34.800039
 30
0.0
 10
112.322085
 20
34.800039
 30
0.0
 10
111.812085
 20
34.800039
 30
0.0
 10
111.302085
 20
34.800039
 30
0.0
 10
110.792085
 20
34.800039
 30
0.0
 10
110.282085
 20
34.800039
 30
0.0
 10
110.282085
 20
36.002957
 30
0.0
 10
110.282093
 20
37.205876
 30
0.0
 10
110.282093
 20
38.408794
 30
0.0
 10
110.279843
 20
39.611727
 30
0.0
  0
LWPOLYLINE
  5
10f
100
AcDbEntity
  8
0
 62
7
100
AcDbPolyline
 90
56
 70
1
 10
18.750269
 20
62.700004
 30
0.0
 10
24.603323
 20
74.079520
 30
0.0
 10
33.212132
 20
83.293054
 30
0.0
 10
43.962872
 20
89.840871
 30
0.0
 10
56.241721
 20
93.223233
 30
0.0
 10
66.975503
 20
93.389701
 30
0.0
 10
77.207903
 20
91.187480
 30
0.0
 10
86.640293
 20
86.717888
 30
0.0
 10
94.974052
 20
80.082240
 30
0.0
 10
98.317050
 20
76.337328
 30
0.0
 10
101.273288
 20
72.208902
 30
0.0
 10
103.753470
 20
67.836586
 30
0.0
 10
105.668310
 20
63.360005
 30
0.0
 10
106.376033
 20
61.387016
 30
0.0
 10
106.517310
 20
60.477882
 30
0.0
 10
105.945338
 20
60.242494
 30
0.0
 10
104.513318
 20
60.290749
 30
0.0
 10
103.962165
 20
60.308066
 30
0.0
 10
103.411020
 20
60.325384
 30
0.0
 10
102.859875
 20
60.342701
 30
0.0
 10
102.308723
 20
60.360019
 30
0.0
 10
102.142590
 20
60.816111
 30
0.0
 10
101.976458
 20
61.272203
 30
0.0
 10
101.810325
 20
61.728295
 30
0.0
 10
101.644193
 20
62.184386
 30
0.0
 10
97.642920
 20
70.151246
 30
0.0
 10
91.942320
 20
77.159847
 30
0.0
 10
84.896325
 20
82.857374
 30
0.0
 10
76.858875
 20
86.891012
 30
0.0
 10
73.334132
 20
88.023095
 30
0.0
 10
69.863541
 20
88.789496
 30
0.0
 10
66.245823
 20
89.224324
 30
0.0
 10
62.279702
 20
89.361686
 30
0.0
 10
57.473378
 20
89.150426
 30
0.0
 10
53.093486
 20
88.476179
 30
0.0
 10
48.860812
 20
87.278253
 30
0.0
 10
44.496143
 20
85.495952
 30
0.0
 10
37.726132
 20
81.485225
 30
0.0
 10
31.759076
 20
76.201140
 30
0.0
 10
26.861066
 20
69.926768
 30
0.0
 10
23.298191
 20
62.945183
 30
0.0
 10
22.964856
 20
62.065859
 30
0.0
 10
22.691884
 20
61.308939
 30
0.0
 10
22.507443
 20
60.755141
 30
0.0
 10
22.439703
 20
60.485183
 30
0.0
 10
22.279697
 20
60.383752
 30
0.0
 10
21.823695
 20
60.306490
 30
0.0
 10
21.107718
 20
60.257282
 30
0.0
 10
20.167788
 20
60.240017
 30
0.0
 10
19.599809
 20
60.240017
 30
0.0
 10
19.031831
 20
60.240017
 30
0.0
 10
18.463852
 20
60.240017
 30
0.0
 10
17.895873
 20
60.240017
 30
0.0
 10
18.109472
 20
60.855017
 30
0.0
 10
18.323072
 20
61.470017
 30
0.0
 10
18.536670
 20
62.085017
 30
0.0
  0
LWPOLYLINE
  5
110
100
AcDbEntity
  8
0
 62
7
100
AcDbPolyline
 90
76
 70
1
 10
36.454169
 20
61.380004
 30
0.0
 10
36.774104
 20
61.955208
 30
0.0
 10
37.214570
 20
62.678630
 30
0.0
 10
37.717472
 20
63.457739
 30
0.0
 10
38.224715
 20
64.200005
 30
0.0
 10
41.947601
 20
68.512686
 30
0.0
 10
46.379413
 20
71.971956
 30
0.0
 10
51.427623
 20
74.519191
 30
0.0
 10
56.999703
 20
76.095764
 30
0.0
 10
59.058721
 20
76.304354
 30
0.0
 10
61.797651
 20
76.374869
 30
0.0
 10
64.567607
 20
76.306994
 30
0.0
 10
66.719702
 20
76.100417
 30
0.0
 10
72.980110
 20
74.275740
 30
0.0
 10
78.649478
 20
71.107574
 30
0.0
 10
83.504153
 20
66.755724
 30
0.0
 10
87.320513
 20
61.379996
 30
0.0
 10
87.477930
 20
61.094996
 30
0.0
 10
87.635355
 20
60.809996
 30
0.0
 10
87.792773
 20
60.524996
 30
0.0
 10
87.950190
 20
60.239996
 30
0.0
 10
87.509730
 20
60.239996
 30
0.0
 10
87.069278
 20
60.239996
 30
0.0
 10
86.628825
 20
60.239996
 30
0.0
 10
86.188365
 20
60.239996
 30
0.0
 10
85.747913
 20
60.239996
 30
0.0
 10
85.307453
 20
60.239996
 30
0.0
 10
84.867000
 20
60.239996
 30
0.0
 10
84.426540
 20
60.239996
 30
0.0
 10
84.167535
 20
60.644996
 30
0.0
 10
83.908530
 20
61.049996
 30
0.0
 10
83.649525
 20
61.454996
 30
0.0
 10
83.390520
 20
61.859996
 30
0.0
 10
81.970695
 20
63.724216
 30
0.0
 10
80.058023
 20
65.763440
 30
0.0
 10
77.953898
 20
67.680802
 30
0.0
 10
75.959700
 20
69.179442
 30
0.0
 10
74.103176
 20
70.292012
 30
0.0
 10
72.256941
 20
71.203881
 30
0.0
 10
70.308113
 20
71.964806
 30
0.0
 10
68.143809
 20
72.624546
 30
0.0
 10
66.756506
 20
72.968095
 30
0.0
 10
65.517927
 20
73.163068
 30
0.0
 10
64.036262
 20
73.250082
 30
0.0
 10
61.919702
 20
73.269754
 30
0.0
 10
59.825843
 20
73.248897
 30
0.0
 10
58.341140
 20
73.163215
 30
0.0
 10
57.105546
 20
72.976678
 30
0.0
 10
55.759013
 20
72.653256
 30
0.0
 10
52.268196
 20
71.501374
 30
0.0
 10
49.102454
 20
69.973693
 30
0.0
 10
46.208337
 20
68.039680
 30
0.0
 10
43.532396
 20
65.668801
 30
0.0
 10
42.665687
 20
64.749621
 30
0.0
 10
41.793682
 20
63.743278
 30
0.0
 10
41.017861
 20
62.771590
 30
0.0
 10
40.439703
 20
61.956369
 30
0.0
 10
40.169703
 20
61.534318
 30
0.0
 10
39.899703
 20
61.112267
 30
0.0
 10
39.629703
 20
60.690217
 30
0.0
 10
39.359703
 20
60.268165
 30
0.0
 10
38.923692
 20
60.264640
 30
0.0
 10
38.487681
 20
60.261115
 30
0.0
 10
38.051670
 20
60.257590
 30
0.0
 10
37.615659
 20
60.254065
 30
0.0
 10
37.179649
 20
60.250540
 30
0.0
 10
36.743639
 20
60.247015
 30
0.0
 10
36.307628
 20
60.243490
 30
0.0
 10
35.871617
 20
60.239965
 30
0.0
 10
36.017255
 20
60.524965
 30
0.0
 10
36.162893
 20
60.809965
 30
0.0
 10
36.308531
 20
61.094965
 30
0.0
 10
36.454169
 20
61.379965
 30
0.0
 10
36.454169
 20
61.379968
 30
0.0
 10
36.454169
 20
61.379971
 30
0.0
 10
36.454169
 20
61.379974
 30
0.0
  0
ENDSEC
  0
SECTION
  2
OBJECTS
  0
DICTIONARY
  5
C
330
0
100
AcDbDictionary
  3
ACAD_GROUP
350
D
  3
ACAD_MLINESTYLE
350
17
  0
DICTIONARY
  5
D
330
C
100
AcDbDictionary
  0
DICTIONARY
  5
1A
330
C
100
AcDbDictionary
  0
DICTIONARY
  5
17
330
C
100
AcDbDictionary
  3
STANDARD
350
18
  0
DICTIONARY
  5
19
330
C
100
AcDbDictionary
  0
ENDSEC
  0
EOF
