<?xml version="1.0" encoding="UTF-8" standalone="no"?>
<!-- Created with Inkscape (http://www.inkscape.org/) -->

<svg
   xmlns:dc="http://purl.org/dc/elements/1.1/"
   xmlns:cc="http://creativecommons.org/ns#"
   xmlns:rdf="http://www.w3.org/1999/02/22-rdf-syntax-ns#"
   xmlns:svg="http://www.w3.org/2000/svg"
   xmlns="http://www.w3.org/2000/svg"
   xmlns:sodipodi="http://sodipodi.sourceforge.net/DTD/sodipodi-0.dtd"
   xmlns:inkscape="http://www.inkscape.org/namespaces/inkscape"
   width="210mm"
   height="297mm"
   viewBox="0 0 210 297"
   version="1.1"
   id="svg8"
   inkscape:version="0.92.5 (2060ec1f9f, 2020-04-08)"
   sodipodi:docname="aerialist.svg">
  <defs
     id="defs2">
    <marker
       inkscape:stockid="DotL"
       orient="auto"
       refY="0.0"
       refX="0.0"
       id="DotL"
       style="overflow:visible"
       inkscape:isstock="true">
      <path
         id="path916"
         d="M -2.5,-1.0 C -2.5,1.7600000 -4.7400000,4.0 -7.5,4.0 C -10.260000,4.0 -12.5,1.7600000 -12.5,-1.0 C -12.5,-3.7600000 -10.260000,-6.0 -7.5,-6.0 C -4.7400000,-6.0 -2.5,-3.7600000 -2.5,-1.0 z "
         style="fill-rule:evenodd;stroke:#000000;stroke-width:1pt;stroke-opacity:1;fill:#000000;fill-opacity:1"
         transform="scale(0.8) translate(7.4, 1)" />
    </marker>
  </defs>
  <sodipodi:namedview
     id="base"
     pagecolor="#ffffff"
     bordercolor="#666666"
     borderopacity="1.0"
     inkscape:pageopacity="0.0"
     inkscape:pageshadow="2"
     inkscape:zoom="0.35"
     inkscape:cx="318.91537"
     inkscape:cy="558.71865"
     inkscape:document-units="mm"
     inkscape:current-layer="layer1"
     showgrid="false"
     inkscape:window-width="1920"
     inkscape:window-height="1016"
     inkscape:window-x="1920"
     inkscape:window-y="0"
     inkscape:window-maximized="1" />
  <metadata
     id="metadata5">
    <rdf:RDF>
      <cc:Work
         rdf:about="">
        <dc:format>image/svg+xml</dc:format>
        <dc:type
           rdf:resource="http://purl.org/dc/dcmitype/StillImage" />
        <dc:title></dc:title>
      </cc:Work>
    </rdf:RDF>
  </metadata>
  <g
     inkscape:label="Layer 1"
     inkscape:groupmode="layer"
     id="layer1">
    <path
       style="fill:#000000;stroke-width:0.26458332"
       d="m 57.527965,215.41577 c 0,-1.29378 -0.0942,-1.54314 -0.85989,-2.27679 -0.47294,-0.45315 -1.5399,-1.30164 -2.37101,-1.88554 -1.04554,-0.73456 -1.60161,-1.33584 -1.80482,-1.95158 -0.24298,-0.73623 -0.48465,-0.93992 -1.3993,-1.17943 -2.01557,-0.5278 -2.42852,-0.84251 -2.42852,-1.85077 0,-0.5018 -0.13295,-1.15048 -0.29543,-1.44152 -0.1625,-0.29104 -0.50208,-1.18401 -0.75463,-1.98438 -0.30932,-0.98025 -0.79579,-1.77557 -1.4905,-2.43677 -1.59957,-1.52243 -1.46473,-2.05983 1.1515,-4.58928 1.20055,-1.16073 2.37954,-2.52525 2.61997,-3.03228 0.6168,-1.30071 1.01805,-3.76855 1.01805,-6.26145 v -2.13271 l -1.69661,-1.29095 c -2.15914,-1.64289 -3.24911,-3.2269 -3.62479,-5.26779 -0.83566,-4.53965 -1.47553,-6.79209 -2.62837,-9.25232 -0.37288,-0.79573 -0.39643,-3.78391 -0.0424,-5.37735 0.62448,-2.81066 1.73962,-4.46451 4.08149,-6.05322 0.71389,-0.48429 1.46235,-0.706 2.72569,-0.80741 1.54726,-0.1242 1.8351,-0.23895 2.57983,-1.02851 0.46105,-0.4888 0.99066,-0.88872 1.17692,-0.88872 0.18626,0 0.33865,-0.12707 0.33865,-0.28238 0,-0.52486 1.98798,-2.7995 4.23334,-4.84377 0.21828,-0.19873 0.78383,-0.55845 1.25677,-0.79938 0.47294,-0.24093 0.85989,-0.61596 0.85989,-0.8334 0,-0.21743 0.30856,-0.88411 0.68568,-1.48151 1.03407,-1.63808 2.45273,-4.83075 3.20863,-7.22097 0.37107,-1.17336 1.03734,-2.84776 1.4806,-3.72088 3.20566,-6.3144 3.80513,-7.56089 4.21639,-8.76733 0.25474,-0.74728 1.02725,-2.04389 1.71669,-2.88134 l 1.25352,-1.52264 -0.0834,-3.6008 c -0.0459,-1.98045 0.0436,-5.80346 0.19878,-8.4956 0.15518,-2.69214 0.35098,-7.45464 0.43512,-10.58333 0.0841,-3.1287 0.24635,-8.01026 0.36048,-10.84792 0.26796,-6.66234 1.00198,-31.63491 1.35318,-46.0375 0.15081,-6.184635 0.34711,-12.346119 0.43622,-13.692187 l 0.16202,-2.447396 h 1.71826 1.71826 l -0.15496,4.828646 c -0.0852,2.655755 -0.27628,8.638646 -0.42454,13.295312 -0.14827,4.656667 -0.39449,11.502765 -0.54715,15.213545 -0.44603,10.84161 -0.78598,21.31615 -1.07341,33.07291 -0.29502,12.06786 -0.90601,24.80842 -1.28769,26.85143 -0.2269,1.21453 -0.19662,1.35391 0.41788,1.92341 0.41244,0.38224 0.60092,0.77443 0.49937,1.03909 -0.0897,0.2338 0.0333,0.64209 0.27326,0.9073 0.2758,0.30476 0.37652,0.70447 0.2737,1.08622 -0.12592,0.46748 0.0309,0.76406 0.69372,1.31203 0.7954,0.65758 0.83489,0.76504 0.55432,1.50835 -0.29628,0.78495 -0.2734,0.81958 1.19137,1.80284 0.82141,0.55138 2.61217,1.82004 3.97947,2.81923 l 2.485997,1.81673 -0.15228,-1.02029 c -0.0838,-0.56116 -0.83419,-3.6992 -1.667637,-6.97342 -1.49836,-5.8863 -1.51565,-5.99767 -1.53998,-9.92187 -0.0236,-3.80574 0.005,-4.02853 0.69243,-5.42396 0.53312,-1.08197 1.05497,-1.67576 2.034627,-2.31511 0.72468,-0.47294 1.43389,-0.85989 1.57603,-0.85989 0.14213,0 0.30067,-0.12675 0.3523,-0.28165 0.13845,-0.41534 2.05691,-0.60315 4.01696,-0.39325 1.31266,0.14058 2.11366,0.42124 3.39007,1.18783 1.73625,1.04277 3.0446,1.58418 2.7753,1.14845 -0.24651,-0.39887 -0.49746,-3.46918 -0.84945,-10.39263 -0.0777,-1.52797 -0.31041,-5.27844 -0.51718,-8.33438 -0.55892,-8.26062 -0.89277,-14.52189 -1.19913,-22.48958 -0.15107,-3.92868 -0.38423,-8.51259 -0.51812,-10.18608 -0.13389,-1.67349 -0.31097,-4.59052 -0.3935,-6.48229 -0.18443,-4.227034 -0.86864,-18.331853 -1.06849,-22.026564 l -0.14669,-2.711979 h 3.05106 3.05105 l 0.002,5.357812 c 0.002,5.848187 0.92368,43.572451 1.18425,48.484901 0.0386,0.7276 0.226278,7.97013 0.417078,16.09451 l 0.3469,14.77159 1.09105,0.75066 c 1.28018,0.88079 8.07617,7.81441 11.66296,11.89915 1.00931,1.14943 2.08156,2.21235 4.90654,4.86382 0.75236,0.70614 1.73762,1.41215 2.18948,1.5689 0.45185,0.15675 1.36405,0.60411 2.0271,0.99413 0.66305,0.39003 2.38946,1.1512 3.83646,1.6915 4.02051,1.50123 4.69462,2.43021 3.52168,4.85318 -0.56134,1.15958 -0.74208,1.23729 -1.9491,0.83798 -0.14552,-0.0481 -1.05527,0.003 -2.02166,0.1141 -1.09191,0.12529 -2.16206,0.0926 -2.82683,-0.0864 -1.01769,-0.27404 -1.14987,-0.23628 -2.71572,0.77578 -0.90527,0.58511 -1.80609,1.06383 -2.00181,1.06383 -0.59629,0 -0.42131,0.33468 1.31937,2.5236 2.20976,2.77878 9.03099,11.38921 9.92456,12.52777 0.97884,1.24718 4.23579,5.34122 4.76448,5.98901 1.5308,1.87564 3.56355,4.50444 4.80326,6.21171 0.79252,1.0914 1.50761,2.0439 1.58909,2.11666 0.15627,0.13956 3.98545,5.2891 5.61116,7.54599 0.76123,1.05678 1.19116,1.39149 2.10337,1.63751 2.26942,0.61205 4.57143,4.06755 3.89372,5.8448 -0.45497,1.19311 -0.0311,2.90039 1.06398,4.2858 1.01454,1.28349 1.21591,1.71182 1.99045,4.23382 0.2458,0.80036 0.74155,2.40771 1.10166,3.57188 0.3601,1.16416 1.07365,4.01313 1.58565,6.33105 0.51201,2.31791 0.982,4.29704 1.04444,4.39806 0.10345,0.16738 8.11324,78.23067 8.48764,80.28253 l 0.15691,0.8599 -12.89966,-0.26727 h -11.02874 l -0.14762,-0.8599 c -0.45796,-2.66735 7.61787,-78.05106 7.61787,-78.99038 0,-0.59498 -0.28302,-1.93521 -0.62894,-2.9783 -1.08709,-3.27802 -2.34259,-7.45443 -2.69854,-8.97663 -0.22557,-0.96464 -0.4603,-1.07725 -2.13162,-1.02263 -1.81481,0.0593 -4.43876,-0.55191 -6.05215,-1.40976 -0.69716,-0.37068 -1.41457,-0.67397 -1.59425,-0.67397 -0.17967,0 -0.75572,-0.47489 -1.2801,-1.05532 -0.84709,-0.93763 -1.18248,-1.10132 -3.00735,-1.4677 -3.66956,-0.73675 -9.88906,-2.84159 -10.37931,-3.51262 -0.0777,-0.10636 -0.69084,-0.54803 -1.36252,-0.98148 -1.80347,-1.16381 -5.05455,-4.17814 -6.69166,-6.20436 -0.78987,-0.97761 -1.77338,-1.90869 -2.18557,-2.06905 -1.238,-0.48165 -4.82212,-1.07371 -7.49632,-1.2383 -1.38245,-0.0851 -3.94229,-0.28298 -5.68854,-0.43975 -2.762338,-0.24799 -3.373928,-0.22704 -4.705518,0.16113 -1.73911,0.50697 -5.74373,0.60585 -6.86909,0.16961 -0.39968,-0.15493 -1.39535,-0.34357 -2.21259,-0.41919 l -1.48591,-0.13748 0.1611,0.85819 c 0.54564,2.90667 0.56474,2.75838 -0.491437,3.81456 l -0.98677,0.98677 0.81426,2.63921 c 0.564027,1.82814 0.732267,2.738 0.547457,2.96067 -0.181967,0.21927 -0.14577,0.67275 0.11386,1.42633 0.3319,0.96334 0.33153,1.12369 -0.003,1.252 -0.500937,0.19223 -0.566977,0.1064 -0.757677,-0.98459 -0.27302,-1.56197 -0.7234,-3.19307 -0.84742,-3.06905 -0.17688,0.17688 -0.30013,0.97289 -0.32282,2.0849 -0.0292,1.43094 -0.60535,1.28787 -2.78226,-0.69087 l -1.83597,-1.66884 0.0632,-2.2937 0.0632,-2.29371 -1.2772,0.72851 c -0.70247,0.40068 -1.69066,0.9398 -2.196,1.19806 -0.98419,0.50297 -3.15116,2.08906 -5.04479,3.69246 l -1.16566,0.98701 0.95979,0.005 c 1.12284,0.006 1.67428,0.53155 1.41501,1.34843 -0.11534,0.36339 -0.0504,0.6675 0.17657,0.82659 0.27913,0.19567 0.28543,0.28157 0.0283,0.38589 -0.4513,0.18313 -0.42045,1.14844 0.0367,1.14844 0.20666,0 0.43955,0.38442 0.53225,0.87856 0.10271,0.54746 0.46558,1.10092 0.96285,1.46857 0.43891,0.3245 0.73669,0.68924 0.66174,0.81052 -0.21882,0.35405 1.3715,0.88678 2.10081,0.70374 0.36662,-0.092 0.66659,-0.0587 0.66659,0.074 0,0.3379 -0.68305,0.56251 -1.71057,0.56251 -0.68117,0 -0.90947,0.13111 -1.03669,0.59532 -0.12538,0.45752 -0.21688,0.51198 -0.3953,0.23529 -0.12769,-0.19801 -0.17334,-0.58496 -0.10144,-0.85989 0.0884,-0.33789 -0.008,-0.49989 -0.29701,-0.49989 -0.23526,0 -0.42774,0.0831 -0.42774,0.18479 0,0.49498 1.34343,4.50503 1.64935,4.92321 0.50348,0.68823 1.30293,0.73101 1.98763,0.10636 0.32685,-0.29818 0.66877,-0.46764 0.75983,-0.37658 0.24057,0.24057 -1.37012,1.7768 -1.86291,1.7768 -0.2373,0 -0.41723,0.22254 -0.41723,0.51602 0,0.28381 -0.16111,0.61124 -0.35803,0.72761 -0.74048,0.4376 -0.62749,4.04804 0.12668,4.04804 0.1,0 0.11954,0.23813 0.0434,0.52917 -0.0761,0.29104 -0.031,0.52916 0.10037,0.52916 0.13131,0 0.23875,0.23813 0.23875,0.52917 0,0.40516 -0.17639,0.52917 -0.75267,0.52917 -0.41397,0 -0.69079,0.10013 -0.61515,0.2225 0.27925,0.45184 -1.56058,1.48849 -2.88442,1.62523 -1.08791,0.11237 -1.33698,0.23512 -1.40209,0.69098 -0.18484,1.29409 -3.80783,3.79196 -4.31342,2.9739 -0.097,-0.15699 -0.33114,-0.23387 -0.52025,-0.17083 -0.18911,0.063 0.30314,0.5026 1.09388,0.9768 1.65292,0.99124 0.99318,0.97095 -1.4727,-0.0453 -0.87313,-0.35984 -1.92442,-0.73256 -2.33622,-0.82828 -0.66573,-0.15474 -0.72971,-0.11415 -0.57722,0.36629 0.10409,0.32795 0.0158,0.69599 -0.22457,0.93638 -0.53198,0.53198 -0.64669,0.50134 -0.74619,-0.19925 -0.0465,-0.32742 -0.26314,-0.59531 -0.48143,-0.59531 -0.25385,0 -0.37416,0.21453 -0.33384,0.59531 0.0546,0.51564 -0.0605,0.59532 -0.8599,0.59532 h -0.92292 v -1.45291 z m 8.86355,-0.66377 c 0.33354,-0.14333 0.38245,-0.22739 0.13229,-0.22739 -0.21828,0 -0.635,0.10232 -0.92604,0.22739 -0.33355,0.14333 -0.38245,0.22739 -0.1323,0.22739 0.21829,0 0.635,-0.10232 0.92605,-0.22739 z m 0.48568,-0.84901 c 0.76041,-0.39485 0.29641,-0.56773 -0.64395,-0.23991 -0.46571,0.16234 -1.25272,0.29517 -1.74891,0.29517 -0.56161,0 -0.83749,0.10467 -0.73081,0.27728 0.19103,0.3091 2.32564,0.0819 3.12367,-0.33254 z M 140.7746,182.5331 c 0.31039,-0.25143 0.69009,-0.70365 0.84378,-1.00493 0.24082,-0.47211 0.16285,-0.61513 -0.56435,-1.03517 -3.47802,-2.00895 -11.08718,-7.45257 -14.86669,-10.63568 -2.55673,-2.15329 -6.63694,-5.22592 -9.78958,-7.37211 -1.45521,-0.99065 -3.11133,-2.13828 -3.68027,-2.55029 -0.56895,-0.41202 -1.10128,-0.68228 -1.18297,-0.60059 -0.16618,0.16619 -0.21032,0.13128 1.94577,1.53862 2.74492,1.79169 6.04595,4.58581 8.08379,6.84244 2.97335,3.29258 5.65487,5.83114 6.7848,6.42307 4.00942,2.10039 5.93761,3.32564 7.09888,4.51089 0.7276,0.74263 1.97776,2.02572 2.77812,2.85131 0.80037,0.82559 1.57427,1.49849 1.71979,1.49532 0.14553,-0.003 0.51854,-0.21146 0.82893,-0.46288 z m -1.98113,-8.66664 c -1.17471,-1.24101 -4.25259,-4.90218 -6.83973,-8.13594 -2.58713,-3.23376 -4.90219,-6.11769 -5.14457,-6.40873 -1.49414,-1.7941 -11.3921,-14.05532 -12.49483,-15.47812 -2.5606,-3.30382 -2.89035,-3.68075 -2.70155,-3.08806 1.0692,3.35659 1.26738,4.87585 1.15228,8.83351 l -0.11708,4.02567 3.03102,2.45662 c 1.66706,1.35115 3.64185,2.92283 4.38843,3.49263 1.58014,1.206 5.00094,3.92585 5.19386,4.12962 0.0728,0.0768 0.66807,0.5523 1.32292,1.05655 0.65484,0.50426 1.42875,1.13801 1.71979,1.40833 0.29104,0.27032 1.24354,1.04158 2.11666,1.71391 0.87313,0.67233 1.71902,1.34519 1.87976,1.49525 0.16074,0.15006 1.39619,1.16581 2.74545,2.25722 1.34926,1.0914 3.12274,2.54886 3.94108,3.23879 0.81834,0.68993 1.59014,1.25548 1.71512,1.25677 0.12498,0.001 -0.73389,-1.01302 -1.90861,-2.25402 z M 86.621882,147.42827 c 0.61832,-0.74503 0.0558,-0.42458 -0.96721,0.55099 -0.879957,0.83915 -0.903867,0.89075 -0.18967,0.40923 0.44949,-0.30305 0.97009,-0.73514 1.15688,-0.96022 z m -21.621147,-0.89851 c 0.44181,0.0849 1.52307,-0.29042 1.52307,-0.52863 0,-0.10368 0.60793,-0.42308 1.35097,-0.70978 1.38652,-0.53498 2.71478,-1.60546 2.47449,-1.99426 -0.19702,-0.31878 -1.80978,0.31282 -4.22234,1.65359 -2.53799,1.41048 -2.86861,1.58365 -4.23333,2.21736 -1.3777,0.63973 -1.37177,0.63386 -0.92226,0.91168 0.26684,0.16491 0.89451,-0.0466 2.04115,-0.68784 0.91069,-0.50929 1.80541,-0.89725 1.98825,-0.86212 z m 9.85744,-5.3139 c 0.83586,-0.36742 3.57302,-1.01966 5.08957,-1.21278 0.8787,-0.11191 2.36081,-0.0127 4.05235,0.27141 1.466827,0.24631 2.715437,0.39935 2.774697,0.34009 0.0593,-0.0593 -0.48653,-0.55142 -1.21287,-1.09368 -0.726347,-0.54227 -1.645887,-1.27304 -2.043437,-1.62395 -0.39754,-0.35091 -2.0325,-1.76049 -3.63322,-3.1324 -1.60073,-1.3719 -3.19613,-2.80416 -3.54532,-3.18278 l -0.63491,-0.68841 -0.59327,1.28052 c -0.3263,0.70429 -1.06474,1.6594 -1.64098,2.12248 -1.00664,0.80896 -1.04912,0.90628 -1.0838,2.48285 -0.0198,0.90248 -0.11014,2.49467 -0.20064,3.5382 l -0.16454,1.89731 1.1536,-0.38312 c 0.63448,-0.21072 1.39173,-0.4878 1.68277,-0.61574 z m -1.56411,-18.471 c -0.28456,-0.28455 -0.43562,0.11397 -0.23587,0.62225 0.18738,0.4768 0.20153,0.47763 0.2942,0.0172 0.0535,-0.26606 0.0273,-0.55379 -0.0583,-0.63941 z M 97.744632,111.3003 c 0,-0.29104 -0.10791,-0.52917 -0.23981,-0.52917 -0.1319,0 -0.17755,0.23813 -0.10144,0.52917 0.0761,0.29104 0.18403,0.52916 0.23982,0.52916 0.0558,0 0.10143,-0.23812 0.10143,-0.52916 z m 1.5053,-2.57969 c -0.0665,-0.25466 -0.121,-0.0463 -0.121,0.46302 0,0.50932 0.0545,0.71768 0.121,0.46302 0.0666,-0.25466 0.0666,-0.67138 0,-0.92604 z m -0.26361,-5.8158 c -0.0671,-0.25743 -0.12638,-0.11087 -0.13178,0.3257 -0.005,0.43656 0.0495,0.64718 0.12197,0.46805 0.0725,-0.17913 0.0769,-0.53632 0.01,-0.79375 z"
       id="path826"
       inkscape:connector-curvature="0"
       sodipodi:nodetypes="cscccscccscscsccccscsscssscsccccscssscccccsccccccccccccccccscccccscscccccccsccscccscccccsccccccccccccccccccsssccscccccccsccccssccccccscscccccccccccsccccsscccssccssscscssscscccsccsccsssccccscscccsccccscscccssccccccsscscccccscscsccccsccsccscccccccscccccssccccccccccsscsscsccccccc" />
    <path
       style="fill:none;stroke:#000000;stroke-width:3.62199998;stroke-linecap:butt;stroke-linejoin:miter;stroke-miterlimit:4;stroke-dasharray:none;stroke-opacity:1"
       d="M 87.410152,34.261789 70.194219,20.433422 c -1.620838,-3.189318 -0.750135,-8.308235 1.428182,-11.4318895 1.612657,-1.915317 5.737626,-3.045758 7.951337,-2.373509 4.362351,1.037156 7.309924,5.2139105 8.396434,9.7646745 0.59158,-1.383658 1.12814,-3.915451 2.2829,-5.448066 1.82932,-3.1876115 5.8634,-5.3296915 9.4771,-4.0243615 2.612888,0.868068 3.493828,3.8410825 3.782628,6.3002555 0.22842,2.102635 0.0161,4.223302 -0.30601,6.304352 -4.383598,6.42421 -11.413038,8.312701 -15.796638,14.736911 z"
       id="path851"
       inkscape:connector-curvature="0"
       sodipodi:nodetypes="cccccccccc" />
  </g>
</svg>
