<?xml version="1.0" encoding="UTF-8" standalone="no"?>
<!-- Created with Inkscape (http://www.inkscape.org/) -->

<svg
   xmlns:dc="http://purl.org/dc/elements/1.1/"
   xmlns:cc="http://creativecommons.org/ns#"
   xmlns:rdf="http://www.w3.org/1999/02/22-rdf-syntax-ns#"
   xmlns:svg="http://www.w3.org/2000/svg"
   xmlns="http://www.w3.org/2000/svg"
   xmlns:sodipodi="http://sodipodi.sourceforge.net/DTD/sodipodi-0.dtd"
   xmlns:inkscape="http://www.inkscape.org/namespaces/inkscape"
   version="1.1"
   id="svg869"
   width="9.5in"
   height="4.125in"
   viewBox="0 0 912 396"
   sodipodi:docname="butterfly.svg"
   inkscape:version="0.92.5 (2060ec1f9f, 2020-04-08)">
  <metadata
     id="metadata875">
    <rdf:RDF>
      <cc:Work
         rdf:about="">
        <dc:format>image/svg+xml</dc:format>
        <dc:type
           rdf:resource="http://purl.org/dc/dcmitype/StillImage" />
        <dc:title></dc:title>
      </cc:Work>
    </rdf:RDF>
  </metadata>
  <defs
     id="defs873" />
  <sodipodi:namedview
     pagecolor="#ffffff"
     bordercolor="#666666"
     borderopacity="1"
     objecttolerance="10"
     gridtolerance="10"
     guidetolerance="10"
     inkscape:pageopacity="0"
     inkscape:pageshadow="2"
     inkscape:window-width="1880"
     inkscape:window-height="1055"
     id="namedview871"
     showgrid="false"
     units="in"
     inkscape:zoom="4.5654974"
     inkscape:cx="505.91093"
     inkscape:cy="329.44571"
     inkscape:window-x="40"
     inkscape:window-y="0"
     inkscape:window-maximized="1"
     inkscape:current-layer="svg869" />
  <path
     style="fill:#000000"
     d="m 472.35513,373.9831 c -3.40788,-1.336 -7.26312,-7.2249 -8.29626,-12.6727 -1.51309,-7.9785 0.11898,-13.3618 14.34311,-47.3104 4.12201,-9.83794 4.62612,-16.70466 1.93142,-26.30851 -1.17885,-4.2014 -1.36871,-6.41195 -0.64875,-7.55334 0.79007,-1.25251 0.37976,-2.2097 -1.8334,-4.2771 -3.76113,-3.51343 -3.93244,-8.87077 -0.3967,-12.4065 5.17657,-5.17658 13.54545,-1.43473 13.54545,6.05637 0,2.7818 -0.73374,4.27199 -3.22286,6.54545 -1.77257,1.619 -2.69791,2.94363 -2.0563,2.94363 0.64161,0 3.74344,4.6125 6.89296,10.25 3.14952,5.6375 8.31365,14.07898 11.47584,18.75884 9.64266,14.2706 12.19234,23.82036 7.83778,29.35626 -1.13992,1.4492 -2.93992,2.6349 -4,2.6349 -1.50335,0 -1.93225,0.7151 -1.94938,3.25 -0.0303,4.4828 -3.28669,11.2509 -6.39236,13.2858 -1.4812,0.9705 -3.79149,1.5142 -5.41917,1.2753 -2.58176,-0.3789 -2.98783,-0.01 -4.50928,4.1363 -0.91961,2.5039 -2.4648,5.4867 -3.43376,6.6283 -3.83535,4.5188 -10.00185,6.9232 -13.86834,5.4074 z m 7.60543,-8.962 c 4.08495,-2.1862 5.09933,-11.518 2.5568,-23.5215 -0.81545,-3.8498 -1.49741,-10.1496 -1.51548,-13.9996 l -0.0328,-7 -4.01413,9 C 472.05064,340.4958 469,350.0985 469,354.5402 c 0,8.7167 5.11601,13.6088 10.96056,10.4809 z M 498.7479,347 c 3.03402,-8.5096 -3.65143,-41.92588 -10.54656,-52.71556 -0.42724,-0.66856 -0.92797,5.18144 -1.11272,13 -0.78877,33.37896 -0.70322,34.55886 2.93856,40.52966 1.61534,2.6484 2.56887,3.251 4.74709,3 2.08738,-0.2405 3.01798,-1.1338 3.97363,-3.8141 z m 9.21087,-14.4503 c 1.87268,-2.2565 -0.54545,-12.01953 -4.67085,-18.85834 -1.92719,-3.19475 -3.62141,-5.66975 -3.76494,-5.5 -0.14353,0.16975 0.60447,5.46692 1.66224,11.7715 2.25814,13.45914 3.74953,16.23054 6.77355,12.58684 z M 484.5,282 c -0.48382,-0.78284 -1.05907,-0.84093 -1.72574,-0.17426 -0.55,0.55 -0.67341,1.52841 -0.27426,2.17426 0.48382,0.78284 1.05907,0.84093 1.72574,0.17426 0.55,-0.55 0.67341,-1.52841 0.27426,-2.17426 z m 3.03422,-10.62321 c 0.73955,-1.1966 2.61422,-7.35551 -5.06975,-6.75133 -5.00992,-1.17091 -4.80726,7.29762 -3.40678,7.29762 0.48508,0 4.50625,3.7157 4.82268,3.20371 z M 655.2888,373.1996 c -2.14115,-1.3607 -4.48083,-8.3595 -3.8816,-11.6113 0.52359,-2.8413 0.25566,-3.22 -3.34952,-4.7343 -3.02827,-1.2721 -4.55925,-2.8626 -6.73815,-7 -2.74166,-5.2062 -2.81944,-5.782 -2.81645,-20.854 0.003,-14.08229 0.25985,-16.35961 2.81044,-24.89823 2.97918,-9.97345 7.66759,-20.2526 10.79368,-23.66474 1.86569,-2.0364 1.85141,-2.09152 -1.10858,-4.27994 C 648.45782,274.27861 648,273.26873 648,269.54264 c 0,-3.5596 0.50204,-4.79238 2.63486,-6.47006 3.11311,-2.44877 5.44164,-2.6015 9.29362,-0.60957 3.04437,1.57431 4.07152,3.34958 4.07152,7.03699 0,3.7155 -1.032,5.46519 -4.18524,7.09579 l -2.94287,1.52182 5.82237,3.76318 c 6.73613,4.35377 12.73516,10.81755 16.5572,17.83989 6.83949,12.5664 7.85234,32.39342 1.7365,33.99272 -1.38718,0.3628 -1.98796,1.3665 -1.98796,3.3214 0,4.1391 -0.92827,5.8767 -3.9834,7.4566 -2.13452,1.1038 -2.86596,2.3488 -3.30558,5.6265 -0.66805,4.9807 -3.55907,9.2554 -6.56135,9.7017 -1.18232,0.1757 -2.14967,0.4037 -2.14967,0.5066 0,0.1028 0.42731,1.6769 0.94957,3.498 1.00508,3.5045 -0.0783,8.0015 -2.26213,9.3901 -1.53453,0.9758 -4.85214,0.9682 -6.39865,-0.015 z M 660,365.059 c 0,-3.2817 -1.60365,-4.8554 -3.26001,-3.199 -0.78099,0.781 -0.76255,1.7951 0.0657,3.6129 1.55246,3.4073 3.19431,3.1945 3.19431,-0.4139 z m 5.17126,-11.714 c 2.20943,-1.9995 2.26928,-5.4858 0.18617,-10.845 -0.85513,-2.2 -2.58711,-7.375 -3.84884,-11.5 l -2.29405,-7.5 -0.73156,5.8225 c -1.16277,9.2547 -0.14252,21.2912 2.00593,23.6652 2.20274,2.4341 2.37321,2.4471 4.68235,0.3573 z m -11.38417,-9.0736 c 0.1579,-5.0632 -0.10457,-10.6831 -0.58327,-12.4886 l -0.87036,-3.2828 -2.54352,5 c -3.96943,7.803 -4.29926,10.8164 -1.75837,16.0652 1.47392,3.0447 2.73477,4.4346 3.8325,4.2247 1.34769,-0.2576 1.68651,-1.9347 1.92302,-9.5185 z m 20.13153,-6.5214 c 1.03839,-2.7353 -0.48799,-6.7924 -4.78948,-12.7304 -2.43578,-3.36253 -3.22882,-3.92342 -3.72372,-2.63372 -0.80809,2.10582 0.39314,10.17362 2.13872,14.36412 1.62539,3.902 5.06779,4.442 6.37448,1 z m -26.87697,-8.3002 c 1.06278,-1.2806 0.99712,-1.8396 -0.37755,-3.2143 -1.54099,-1.541 -1.78519,-1.543 -3.30084,-0.027 -1.81755,1.8175 -1.20745,4.7918 0.98291,4.7918 0.77492,0 1.98788,-0.6976 2.69548,-1.5502 z m 34.59226,-1.9382 c 0.72239,-1.8825 -1.373,-10.77252 -3.09377,-13.12582 -1.21285,-1.65867 -1.472,-1.58078 -3.8882,1.16855 -3.45753,3.93425 -3.30419,5.99342 0.74806,10.04567 3.70482,3.7048 5.35197,4.2099 6.23391,1.9116 z M 646,320.5 c 0,-0.825 -0.675,-1.5 -1.5,-1.5 -1.56157,0 -1.98397,1.1827 -0.83333,2.33333 C 644.8173,322.48397 646,322.06157 646,320.5 Z m 12.13595,-4.07443 c 1.99911,-4.51932 2.06981,-4.5666 5.86857,-3.92481 3.10797,0.52509 4.24292,0.2518 5.92029,-1.42557 2.69612,-2.69612 2.61088,-6.38285 -0.29168,-12.61606 -2.40994,-5.1753 -6.93608,-9.78573 -10.81566,-11.01706 -2.81226,-0.89258 -4.97115,1.68001 -7.8364,9.33806 -4.11739,11.00473 -3.61711,19.26011 1.37925,22.7597 3.07836,2.15616 3.55888,1.89706 5.77563,-3.11426 z M 656.77083,282.1875 C 656.98854,281.53437 656.45417,281 655.58333,281 654.7125,281 654,281.7125 654,282.58333 c 0,1.76593 2.15276,1.45839 2.77083,-0.39583 z m 2.83581,-12.32533 c 0,-1.76593 -8.97178,-6.78959 -5.37747,3.95033 -0.21771,0.65313 0.36888,0.89047 1.1875,1.1875 4.39809,1.59579 4.18997,-4.267 4.18997,-5.13783 z M 737.5,372.6615 c -9.91616,-3.2856 -17.21504,-10.1322 -19.61723,-18.4014 -2.18585,-7.5246 -1.53631,-20.301 1.56132,-30.71076 4.28757,-14.40859 15.06658,-35.05398 22.34565,-42.79934 1.42144,-1.5125 2.11596,-2.75 1.54337,-2.75 -0.57258,0 -2.23177,-1.10351 -3.68709,-2.45225 -5.19974,-4.81896 -2.62848,-13.05136 4.4291,-14.18063 2.84401,-0.45506 4.14257,-0.0839 6.35,1.81481 4.70777,4.04946 3.27074,12.51027 -2.43225,14.32033 -1.53353,0.48673 -1.40542,0.9151 1.06431,3.55895 3.80207,4.07013 15.99514,24.74461 19.88375,33.71474 6.61691,15.26375 8.79267,31.05905 5.54588,40.26145 -3.76228,10.6634 -14.04814,17.9416 -26.27552,18.5923 -3.88657,0.2069 -8.39485,-0.2006 -10.71129,-0.9682 z m 18.56462,-5.7846 c 3.41737,-1.4702 4.93538,-2.703 4.93538,-4.0081 0,-1.5781 -0.69649,-1.8586 -4.27845,-1.7231 -4.59211,0.1737 -7.47894,-0.9923 -12.2129,-4.9328 l -2.99136,-2.49 -0.77531,4.3886 c -1.26277,7.1477 -0.67353,9.2875 2.75802,10.0154 5.33287,1.1314 7.53911,0.9119 12.56462,-1.25 z m -21.57351,-1.8913 c -0.7758,-1.2552 1.28836,-11.5919 2.99253,-14.9856 1.18112,-2.3521 0.9441,-2.7807 -4.00721,-7.2458 l -5.26259,-4.7457 -3.30954,6.3832 -3.30954,6.3832 1.87036,4.1477 c 1.8411,4.0829 8.53217,11.0774 10.59678,11.0774 0.58087,0 0.77402,-0.4565 0.42921,-1.0144 z M 769,354.9159 c 0,-0.3861 -0.675,-0.9609 -1.5,-1.2775 -1.14521,-0.4395 -1.49248,0.1857 -1.4682,2.643 0.0301,3.0466 0.11029,3.1148 1.5,1.2775 0.80751,-1.0677 1.4682,-2.257 1.4682,-2.643 z M 759.86356,354.5 c 0.20937,-1.1 -0.20012,-7.3653 -0.90999,-13.9229 -1.13699,-10.5033 -1.60585,-12.2756 -3.93794,-14.8856 l -2.64729,-2.96287 -3.60412,10.38567 c -5.39918,15.5584 -5.43629,16.0003 -1.58902,18.9234 5.34532,4.0612 7.20183,4.9502 9.81625,4.7004 1.58698,-0.1517 2.62964,-0.9642 2.87211,-2.2381 z m 9.75166,-6.2653 c 2.13873,-1.409 2.40433,-4.9566 0.94295,-12.5945 -0.80934,-4.2301 -1.74156,-8.1279 -2.0716,-8.6619 -0.63568,-1.0286 -6.48766,1.4957 -6.4852,2.7974 0.004,1.9042 2.98814,17.3983 3.5158,18.2521 0.70843,1.1463 2.53236,1.2383 4.09805,0.2069 z M 744.96474,329.75 c 3.71498,-10.83218 4.12133,-12.88657 3.51095,-17.75 l -0.69028,-5.5 -3.47725,4 C 738.71052,316.93915 731,328.988 731,331.2959 c 0,1.9217 7.45806,10.7041 9.08997,10.7041 0.37045,0 2.5641,-5.5125 4.87477,-12.25 z m -20.0499,2.6739 c 1.26046,-5.0057 0.55889,-10.02179 -1.00966,-7.2189 -0.47115,0.8419 -1.16274,4.1351 -1.53686,7.3182 -0.81542,6.938 0.79028,6.8754 2.54652,-0.099 z m 39.12525,-10.25528 2.26166,-1.83138 -3.6221,-7.41862 c -1.99215,-4.08024 -5.17483,-10.11228 -7.07261,-13.40453 -3.44548,-5.97717 -3.45158,-5.98166 -4.18233,-3.07011 -1.00964,4.02272 3.0178,18.94394 6.40759,23.73939 1.46724,2.07566 2.95535,3.78354 3.30692,3.79528 0.35156,0.0117 1.65696,-0.80277 2.90087,-1.81003 z m -31.99343,-2.74411 c 1.21538,-1.96653 5.07708,-7.21483 8.58156,-11.66289 5.75425,-7.30359 6.37178,-8.53767 6.37178,-12.73338 0,-2.55529 -0.62146,-5.49588 -1.38102,-6.53463 -1.28936,-1.76331 -1.70416,-1.44414 -6.25,4.80898 C 731.67317,303.88874 727,312.13021 727,315.11617 c 0,2.75346 1.55768,7.88383 2.39369,7.88383 0.24375,0 1.43759,-1.60897 2.65297,-3.57549 z M 746.5,283.16667 c 0,-1.80866 -1.9573,-1.47847 -2.3455,0.39568 -0.21599,1.04271 0.15888,1.49986 1,1.21948 0.74002,-0.24667 1.3455,-0.9735 1.3455,-1.61516 z m -0.0427,-9.09757 c 6.66372,-3.3293 -0.43966,-9.47111 -1.77164,-8.6479 -1.11837,0.69118 -7.48424,5.55036 0.31434,9.5788 0.43098,0.22263 1.14086,-0.41891 1.45729,-0.9309 z M 572,372.3687 c -4.29496,-1.4745 -6.16431,-3.0767 -7.99001,-6.8481 C 562.9045,363.237 562,360.3856 562,359.1843 562,357.5061 561.40549,357 559.43426,357 c -1.41116,0 -3.40012,-0.4465 -4.41992,-0.9923 -2.63336,-1.4094 -4.33885,-7.358 -3.57326,-12.4634 0.6009,-4.0071 0.47034,-4.3497 -1.88247,-4.9402 -4.86134,-1.2202 -4.6978,-9.4811 0.49062,-24.78368 3.89363,-11.48373 12.99063,-30.86028 15.81397,-33.68362 l 2.09096,-2.09096 -2.22708,-1.18626 c -5.44271,-2.89908 -6.44589,-9.36214 -2.08106,-13.40733 3.20243,-2.96791 7.2042,-3.14451 10.60674,-0.46807 5.17453,4.07029 3.81495,11.77626 -2.56747,14.55216 -1.75191,0.76196 -2.63136,1.40299 -1.95434,1.42452 0.67702,0.0215 1.50908,1.27664 1.84903,2.78914 2.48155,11.04095 6.95252,18.91369 19.01137,33.47626 10.56371,12.75704 12.57158,19.39164 8.55661,28.27374 -1.26951,2.8085 -1.57499,4.8626 -1.02553,6.8958 1.62951,6.0297 -3.49235,12.6042 -9.81926,12.6042 -2.53669,0 -3.56481,0.6053 -4.67511,2.7524 -2.63162,5.0889 -7.69126,7.9679 -11.62806,6.6163 z m 5.06574,-5.4039 c 3.50268,-1.8746 2.45338,-6.2127 -2.81574,-11.641 -2.6125,-2.6914 -5.28604,-5.7778 -5.94119,-6.8587 -1.00647,-1.6604 -1.20031,-0.9909 -1.25,4.317 -0.0646,6.896 1.73988,12.4243 4.59749,14.0854 2.3372,1.3585 3.02953,1.371 5.40944,0.097 z M 589,356 c 1.1,-1.1 2,-3.2619 2,-4.8042 0,-2.9535 -4.37718,-10.6532 -7.50168,-13.1958 -3.70041,-3.0113 -11.55236,-16.43732 -13.82073,-23.63203 -1.28046,-4.06127 -2.63174,-7.08049 -3.00285,-6.70938 -1.06356,1.06356 -0.78696,16.36261 0.41417,22.90771 2.6602,14.496 11.10388,27.2322 18.16109,27.3937 0.9625,0.022 2.65,-0.86 3.75,-1.96 z m -27.14555,-5.3451 c 2.43822,-2.5953 3.86592,-10.6486 2.70666,-15.2675 l -0.69768,-2.7797 -2.18171,3.5563 c -1.19995,1.9559 -3.19254,5.0817 -4.42798,6.9461 -2.49413,3.764 -2.87108,6.8726 -1.05374,8.6899 1.76703,1.767 3.18924,1.479 5.65445,-1.1451 z M 593.8,335.8 c 2.99257,-2.9926 -0.007,-10.3086 -9.04783,-22.06617 -7.92035,-10.30064 -11.56704,-15.96046 -13.27592,-20.60476 l -1.33533,-3.62907 -0.0705,6.13813 c -0.14126,12.30562 8.46995,33.86837 15.67091,39.24047 3.12347,2.3302 6.288,2.692 8.05863,0.9214 z M 562.22218,315.28221 C 562.68536,307.152 563.68526,298.025 564.44417,295 c 0.7589,-3.025 1.2324,-5.64953 1.0522,-5.83229 -0.97649,-0.9904 -9.71473,19.38872 -10.99731,25.64767 -2.10867,10.29022 -1.95149,14.73222 0.61205,17.29572 l 2.11111,2.1111 2.0789,-2.0789 c 1.82581,-1.8258 2.18143,-3.8785 2.92106,-16.86109 z m 7.23511,-31.21311 c 0.73955,-1.1966 -1.14162,-2.38223 -2.4736,-1.55902 C 565.86533,283.20126 566.59952,285 568,285 c 0.48508,0 1.14086,-0.41891 1.45729,-0.9309 z m 3.71739,-15.83352 c -2.37034,-7.54911 -8.63622,-2.06561 -8.63622,-0.29968 0,0.87083 -1.20969,7.45392 5.04487,7.0641 4.88354,-0.30437 3.80906,-6.11129 3.59135,-6.76442 z m 266.81871,97.92432 c -9.75648,-6.2977 -13.95197,-12.3506 -16.07001,-23.1845 -1.14996,-5.882 -1.81039,-7.0252 -7.20739,-12.4754 C 810.30001,324.0208 809,321.67347 809,316.56802 c 0,-2.79351 1.68156,-5.17003 10.92363,-15.43825 C 829.99656,289.93843 837,279.31803 837,275.2342 c 0,-0.7955 -1.125,-2.33128 -2.5,-3.41286 -3.50854,-2.75982 -3.44363,-7.93392 0.13486,-10.74876 3.3164,-2.60868 4.42977,-2.59618 7.84223,0.0881 2.45808,1.93353 2.69294,2.63853 2.23433,6.70725 -0.45779,4.06152 -0.16192,4.95615 2.77307,8.38502 11.10786,12.97704 16.89027,37.03481 13.13615,54.65295 -1.54431,7.2475 -3.98848,12.9972 -11.09264,26.0941 -1.93918,3.575 -3.86676,7.7511 -4.2835,9.2802 l -0.75772,2.7802 z m 7.40533,-17.2051 c 3.47781,-3.0536 6.60724,-10.5064 8.06375,-19.2039 0.62067,-3.7064 0.59926,-3.7361 -1.87636,-2.6082 -3.3439,1.5236 -6.99807,-0.8309 -8.53982,-5.50243 -0.8956,-2.71371 -1.54801,-3.32183 -3.12212,-2.91019 -2.8584,0.74749 -5.92417,-2.43409 -5.92417,-6.14794 0,-2.26384 -0.61106,-3.37597 -2.25,-4.09501 -1.2375,-0.54292 -2.39101,-1.97835 -2.56336,-3.18985 -0.17234,-1.2115 -1.18484,-2.47932 -2.25,-2.81739 C 827.87149,302.14182 827,301.40805 827,300.84928 c 0,-1.72601 -1.55576,-0.54165 -5.86064,4.46154 -4.71169,5.47599 -5.58319,10.07835 -2.08182,10.99398 1.81377,0.47431 1.9035,0.78473 0.7573,2.62008 -1.72577,2.7634 -0.0582,5.46312 3.64562,5.90212 2.44871,0.2902 2.695,0.6457 2.19158,3.1628 -0.69961,3.4981 1.31523,5.4408 4.92681,4.7504 2.25904,-0.4319 2.5106,-0.2231 1.96683,1.6323 -2.40019,8.1897 -1.37531,12.5414 3.67939,15.6233 4.519,2.7552 7.12666,2.5123 11.17365,-1.041 z m 7.84973,-32.01435 c 0.96164,-1.89225 1.74133,-5.01545 1.73263,-6.94045 -0.028,-6.18749 -2.73984,-16.59201 -5.89786,-22.62789 -1.89814,-3.62789 -2.78778,-4.72556 -2.32778,-2.87211 0.40951,1.65 0.63964,10.17813 0.51141,18.9514 -0.17202,11.76938 0.0901,16.1565 1,16.73374 1.93122,1.22522 3.0953,0.46701 4.9816,-3.24469 z m -9.59742,-8.64767 c 1.70276,-4.07529 2.03874,-17.71006 0.56164,-22.79278 -0.74658,-2.56897 -0.95871,-1.92243 -1.47647,4.5 -0.33255,4.125 -1.54422,10.18696 -2.6926,13.47101 -1.14838,3.28406 -1.8671,6.54656 -1.59716,7.25 0.95973,2.50102 3.67417,1.23458 5.20459,-2.42823 z M 839.99038,299.75 c 2.41214,-5.45904 3.45168,-13.55044 2.15195,-16.75 -0.97669,-2.40432 -1.01889,-2.36605 -1.10268,1 -0.0479,1.925 -1.24372,6.2 -2.65734,9.5 -3.60949,8.42609 -3.9932,10.5 -1.94266,10.5 1.00677,0 2.42052,-1.69217 3.55073,-4.25 z m -5.57596,-3.65544 c 1.99907,-2.20894 4.60372,-10.23278 4.54573,-14.00349 -0.0378,-2.45937 -0.12936,-2.41317 -1.80103,0.90893 -0.96865,1.925 -3.01059,5.62404 -4.53765,8.2201 -3.4926,5.93755 -2.24318,9.33434 1.79295,4.87446 z M 841,266.58333 c 0,-2.48079 -1.53926,-3.64202 -3.75,-2.82903 -1.32537,0.4874 -1.70387,3.4585 -0.58333,4.57903 C 837.03333,268.7 838.15833,269 839.16667,269 840.4387,269 841,268.2601 841,266.58333 Z M 491.79066,250.97898 C 487.32343,247.29671 479.98006,236.4381 475.95753,227.56661 474.31994,223.95498 472.59704,221 472.12888,221 c -0.46816,0 -2.93868,-1.94395 -5.49004,-4.31989 -4.20309,-3.9141 -4.63884,-4.7464 -4.63884,-8.86045 0,-5.98885 2.59731,-9.74028 15.453,-22.31966 8.54602,-8.36233 10.80896,-11.25292 13.81806,-17.65064 1.97912,-4.20786 4.15763,-7.99627 4.84114,-8.41871 3.00898,-1.85965 11.96109,13.96622 16.44345,29.06935 3.24941,10.94874 4.47401,31.57994 2.47807,41.74851 -1.64454,8.37828 -5.46741,17.55095 -8.73695,20.96362 -3.80748,3.97415 -9.51317,3.88245 -14.50611,-0.23315 z M 503.60795,245.25 c 1.53052,-2.01621 1.83931,-7.85554 0.46047,-8.70771 -1.49669,-0.92501 -4.06842,3.61375 -4.06842,7.18022 0,3.59778 1.5411,4.25024 3.60795,1.52749 z m -6.68053,-6.88486 C 499.34182,235.29573 499.61109,233 497.5567,233 495.78534,233 493,236.80358 493,239.22251 c 0,2.53168 1.52314,2.19918 3.92742,-0.85737 z m 12.37307,-6.02446 C 508.71982,230.82749 507,230.51165 507,231.91821 c 0,0.50502 0.28762,1.66775 0.63916,2.58385 0.47631,1.24123 0.83493,1.34888 1.40748,0.42247 0.42258,-0.68374 0.53681,-1.84647 0.25385,-2.58385 z m -15.93015,-0.56316 c 0.79245,-1.25837 0.76538,-2.0418 -0.10043,-2.90761 -1.55413,-1.55413 -4.26991,0.56121 -4.26991,3.32586 0,2.37297 2.78016,2.10691 4.37034,-0.41825 z m 13.40226,-7.1925 c 3.29371,-3.15324 4.69237,-12.89967 3.15726,-22.00088 -1.4352,-8.50878 -3.494,-14.58301 -8.49353,-25.05898 -3.70093,-7.75489 -3.82815,-7.89279 -4.61274,-5 -0.44376,1.63616 -0.55924,5.67484 -0.25662,8.97484 0.41002,4.47111 0.013,7.7837 -1.55813,13 -3.00243,9.9685 -3.79454,24.07994 -1.59086,28.34139 2.82278,5.45865 8.67588,6.22286 13.35462,1.74363 z m -16.94327,0.0627 c 0.25442,-1.32108 -0.15595,-1.73145 -1.47703,-1.47703 -1.00613,0.19376 -1.98787,1.1755 -2.18163,2.18163 -0.25442,1.32108 0.15595,1.73145 1.47703,1.47703 1.00613,-0.19376 1.98787,-1.1755 2.18163,-2.18163 z M 488,217.37756 c 0,-1.58199 -0.90114,-1.72613 -2.89572,-0.46317 -0.81694,0.51728 -1.12304,1.59433 -0.73816,2.59731 0.53458,1.39311 0.93584,1.48258 2.14571,0.47848 C 487.33032,219.31089 488,218.13521 488,217.37756 Z m 0,-5.96089 c 0,-1.76593 -2.15276,-1.45839 -2.77083,0.39583 -0.21771,0.65313 0.31666,1.1875 1.1875,1.1875 C 487.2875,213 488,212.2875 488,211.41667 Z m -7.41477,-1.91099 c 3.72532,-3.72532 8.11477,-13.79843 9.44221,-21.66838 0.64641,-3.83235 0.98282,-7.16037 0.74758,-7.39562 -0.23524,-0.23524 -1.74336,1.31385 -3.35137,3.44243 -1.60801,2.12857 -5.97342,7.38348 -9.70092,11.67757 -7.6352,8.79577 -8.81989,11.56849 -6.18626,14.47861 2.42072,2.67487 6.05393,2.46022 9.04876,-0.53461 z m 18.2231,-44.58068 c -0.19708,-0.59125 -0.78583,-1.075 -1.30833,-1.075 -0.5225,0 -1.11125,0.48375 -1.30833,1.075 -0.19709,0.59125 0.39166,1.075 1.30833,1.075 0.91667,0 1.50542,-0.48375 1.30833,-1.075 z M 751.5,252.43504 c -1.1,-0.82574 -7.34378,-6.77393 -13.87507,-13.21819 -11.44854,-11.296 -16.58818,-18.56694 -16.61516,-23.50511 -0.0144,-2.63339 21.27754,-43.28522 27.7003,-52.88709 4.78642,-7.15558 7.96936,-5.79811 14.00449,5.97268 6.5198,12.71608 7.77827,20.0259 7.78214,45.20267 0.004,23.87928 -1.18494,32.28762 -5.24655,37.11456 -2.04748,2.43329 -3.15833,2.88046 -7.08904,2.85364 C 755.5975,253.9507 752.6,253.26079 751.5,252.43504 Z m 4.85968,-18.93504 0.63302,-11 -2.14204,2.5 c -1.17813,1.375 -3.26913,4.93819 -4.64667,7.9182 l -2.50461,5.4182 3.73025,3.41852 c 2.05164,1.88019 3.85778,3.267 4.01365,3.0818 0.15586,-0.1852 0.56824,-5.28672 0.9164,-11.33672 z m 10.15268,-0.58984 c 0.41765,-3.03674 0.0726,-6.53009 -1.01438,-10.26912 -2.73236,-9.39897 -5.36481,-4.84149 -5.67135,9.81865 -0.14349,6.8621 0.18468,9.84901 1.21902,11.09531 1.29243,1.55728 1.56382,1.36893 3.12454,-2.16853 0.94005,-2.13067 1.99402,-5.94501 2.34217,-8.47631 z m -16.14122,-10.80385 c 1.40623,-7.30864 1.50276,-9.72145 0.54167,-13.5383 -0.64324,-2.55454 -1.40679,-4.40736 -1.69678,-4.11737 -0.28999,0.28999 -1.08905,4.46972 -1.7757,9.2883 -0.68665,4.81858 -1.57414,10.67356 -1.9722,13.01106 -0.64698,3.79924 -0.5161,4.25 1.23404,4.25 1.66869,0 2.21047,-1.31329 3.66897,-8.89369 z m -7.35561,0.86467 c 0.59724,-1.11596 1.72669,-7.19456 2.50988,-13.50799 0.78319,-6.31344 2.07545,-14.06288 2.87168,-17.22099 0.79624,-3.1581 2.19749,-9.50464 3.11388,-14.10343 2.54495,-12.77141 0.98101,-12.52697 -8.00237,1.25079 C 733.0765,195.38901 728,206.09909 728,212.10845 c 0,4.60596 0.13208,4.80667 5.75,8.73748 6.6353,4.64267 7.77789,4.90473 9.26553,2.12505 z m 14.69683,-8.27767 c -2.60303,-3.92037 -3.71422,-3.17369 -3.68076,2.47336 l 0.0316,5.33333 2.51634,-2.8615 c 2.2471,-2.55533 2.36831,-3.08444 1.13282,-4.94519 z m 9.84456,-3.98104 c 0.86871,-2.26383 -3.32738,-28.02375 -5.51903,-33.88145 -3.74798,-10.01736 -6.47143,-10.22831 -7.52205,-0.58261 -0.37453,3.43848 -1.3188,9.09221 -2.0984,12.56384 -2.51611,11.20459 -2.07253,13.9031 3.10012,18.85937 3.57602,3.42642 5.2499,4.32858 8.03138,4.32858 1.94349,0 3.73467,-0.57549 4.00798,-1.28773 z M 755.77083,163.1875 C 755.98854,162.53437 755.45417,162 754.58333,162 753.7125,162 753,162.7125 753,163.58333 c 0,1.76593 2.15276,1.45839 2.77083,-0.39583 z M 572.3122,249.75 c -1.69407,-1.7875 -5.42759,-7.075 -8.29672,-11.75 -2.86913,-4.675 -7.53384,-10.86089 -10.36604,-13.74642 -6.89218,-7.02198 -8.65025,-10.52726 -8.6457,-17.23798 0.005,-6.91701 1.53025,-9.49114 11.67469,-19.69911 7.72978,-7.77819 12.7819,-15.63123 15.32191,-23.81649 0.6827,-2.2 1.61325,-4.40384 2.06789,-4.89743 0.45601,-0.49507 -0.30416,-1.78692 -1.69548,-2.88132 -3.67988,-2.8946 -4.63646,-6.15435 -2.97375,-10.13376 1.47791,-3.53715 6.21652,-6.01088 9.37918,-4.89628 6.59327,2.32364 8.3,9.56506 3.34525,14.19349 l -2.87658,2.68712 2.43144,2.96409 c 8.21819,10.01854 13.32389,29.39332 13.29845,50.46409 -0.0146,12.117 -2.02419,21.61688 -6.49446,30.70156 -5.67205,11.52698 -10.56516,13.96247 -16.17008,8.04844 z m 9.24165,-21.83713 c 1.03052,-1.66742 -1.28721,-3.57951 -2.66672,-2.2 C 577.73321,226.86679 578.45541,229 580,229 c 0.48508,0 1.18431,-0.48921 1.55385,-1.08713 z m -4.78302,-6.72537 C 576.98854,220.53437 576.45417,220 575.58333,220 574.7125,220 574,220.7125 574,221.58333 c 0,1.76593 2.15276,1.45839 2.77083,-0.39583 z M 586,221.5 c 0,-0.825 -0.675,-1.5 -1.5,-1.5 -1.56157,0 -1.98397,1.1827 -0.83333,2.33333 C 584.8173,223.48397 586,223.06157 586,221.5 Z m -15,-4.44098 c 0,-0.51754 -0.45,-1.2191 -1,-1.55902 -0.55,-0.33992 -1,0.0835 -1,0.94098 0,0.85746 0.45,1.55902 1,1.55902 0.55,0 1,-0.42344 1,-0.94098 z m 12.97852,-2.49393 c 1.27641,-3.86757 -0.4562,-13.35117 -1.92237,-10.52224 -1.54112,2.97356 -3.27728,10.9385 -2.70781,12.42254 1.02241,2.66435 3.45292,1.66683 4.63018,-1.9003 z M 589.15,213.5 c 0,-0.5225 -0.48375,-1.11125 -1.075,-1.30833 -0.59125,-0.19709 -1.075,0.39166 -1.075,1.30833 0,0.91667 0.48375,1.50542 1.075,1.30833 0.59125,-0.19708 1.075,-0.78583 1.075,-1.30833 z m -12.65917,-1.48987 c 1.97263,-2.17973 3.31493,-11.39411 1.79654,-12.33253 -0.51817,-0.32024 -2.48231,2.32894 -4.36475,5.88708 -2.92272,5.52444 -3.20353,6.61067 -1.92262,7.43701 2.08577,1.34557 2.44817,1.26556 4.49083,-0.99156 z M 569.37428,206.75 c 2.6545,-2.4027 7.09614,-10.52349 8.15532,-14.91063 0.53005,-2.19545 -0.77137,-1.29727 -7.44362,5.13724 -4.44729,4.28883 -8.08598,8.20861 -8.08598,8.71063 0,1.32002 2.19213,3.31276 3.64424,3.31276 0.68433,0 2.36284,-1.0125 3.73004,-2.25 z m 20.59054,-1.68426 c 1.16744,-2.18139 1.37257,-8.02293 0.37319,-10.62729 -0.50554,-1.3174 -1.08319,-0.68679 -2.44413,2.66822 -2.23325,5.50542 -2.42355,9.89333 -0.42906,9.89333 0.80565,0 1.93065,-0.87042 2.5,-1.93426 z m -25.9365,-5.58039 c 3.02518,-1.56437 9.49833,-9.53001 12.38129,-15.23597 1.68186,-3.32874 3.93449,-13.23861 3.18066,-13.99245 -0.23065,-0.23064 -1.20647,1.30469 -2.16849,3.41186 -0.96202,2.10716 -5.95047,7.93564 -11.08545,12.95216 -5.13498,5.01652 -9.33633,9.83166 -9.33633,10.70031 0,0.86865 0.7875,2.03804 1.75,2.59864 2.23114,1.29952 1.86704,1.3295 5.27832,-0.43455 z M 585.40297,195.75 c 2.4585,-3.81735 2.87949,-9.09884 1.23648,-15.51214 -1.67376,-6.53334 -4.995,-14.88801 -4.02228,-10.11815 0.29383,1.44084 -0.17482,6.72854 -1.04146,11.75044 -1.89088,10.95706 -1.95121,13.35435 -0.37571,14.92985 1.71376,1.71376 2.55902,1.50259 4.20297,-1.05 z m -13.01439,-19.5 c 1.32933,-2.0625 2.69886,-4.875 3.0434,-6.25 0.34453,-1.375 -0.50461,-0.39345 -1.88699,2.18123 -1.38238,2.57467 -2.97052,4.96373 -3.52921,5.30901 -1.0283,0.63553 -1.42407,2.50976 -0.52997,2.50976 0.2672,0 1.57345,-1.6875 2.90277,-3.75 z m 6.36142,-14.5 c -0.22917,-0.6875 -1.01667,-1.25 -1.75,-1.25 -0.73333,0 -1.52083,0.5625 -1.75,1.25 -0.24786,0.74359 0.46111,1.25 1.75,1.25 1.28889,0 1.99786,-0.50641 1.75,-1.25 z m 2.42308,-11.46021 c 0,-0.79254 -3.30353,-5.8345 -3.81552,-6.15093 -1.18889,-0.73478 -4.98076,5.36854 -4.16525,6.68806 0.91956,1.48787 7.98077,1.11294 7.98077,-0.53713 z m 243.23822,98.81926 c -7.29778,-4.45014 -9.67601,-10.69893 -9.61258,-25.25708 0.073,-16.76776 5.75667,-39.50362 13.95223,-55.81241 4.09432,-8.14751 6.2043,-10.14143 8.99905,-8.50404 2.47686,1.45115 14.38307,25.5384 17.84584,36.10362 2.49252,7.6049 2.90416,10.42003 2.90416,19.86086 0,14.25518 -1.83054,19.83237 -8.88305,27.06444 -7.55885,7.75131 -18.54775,10.60456 -25.20565,6.54461 z m 10.21525,-3.87436 c 0.81326,-0.53037 0.85319,-2.54233 0.14357,-7.23469 -0.54064,-3.575 -0.97661,-8.06917 -0.96881,-9.98704 0.008,-1.91787 -0.53969,-4.54412 -1.21664,-5.83611 -1.22989,-2.34734 -1.23502,-2.34497 -6.90774,3.19337 -3.12231,3.04835 -5.67693,6.24201 -5.67693,7.09702 0,0.85501 0.97449,3.6277 2.16554,6.16153 2.66475,5.66902 8.86089,8.95376 12.46101,6.60592 z m 10.50614,-5.89207 c 3.03687,-3.47498 3.85713,-6.13778 3.25159,-10.55563 l -0.5996,-4.37461 -4.9829,2.46601 c -4.72493,2.33834 -4.94729,2.62535 -4.29512,5.54381 0.37828,1.69279 0.67272,3.7528 0.65431,4.5778 -0.0184,0.825 0.17389,2.52241 0.42735,3.77203 0.3658,1.80345 0.819,2.08035 2.19745,1.34262 0.95513,-0.51117 2.46125,-1.75858 3.34692,-2.77203 z m 9.42541,-16.9613 c 0.66375,-5.3125 -0.0115,-17.1681 -1.03627,-18.19282 -0.26042,-0.26043 -1.05617,0.0101 -1.76832,0.60111 -0.97694,0.81078 -1.12515,3.1167 -0.60368,9.3925 0.38012,4.57484 0.72692,9.55539 0.77065,11.06789 0.14053,4.85997 1.91282,2.93242 2.63762,-2.86868 z m -24.96274,-7.96153 c 0.29492,-1.14412 0.39412,-4.04152 0.22043,-6.43867 l -0.31579,-4.35846 -5.25,7.20992 c -3.98301,5.46993 -5.25,8.06283 -5.25,10.74414 v 3.53424 l 5.02956,-4.30548 c 2.76626,-2.36801 5.27087,-5.24158 5.5658,-6.38569 z m 14.44904,6.55645 c 3.73715,-2.00006 4.10101,-4.31614 2.38883,-15.20548 -1.82369,-11.59859 -4.20208,-22.53531 -5.34475,-24.57713 -0.50229,-0.89754 -1.65452,1.16018 -3.34198,5.96827 -3.55299,10.12358 -4.60979,24.72289 -2.29426,31.6943 1.79662,5.40912 2.24139,5.51887 8.59216,2.12004 z m -19.79004,-18.30413 c 4.16022,-6.26575 8.403,-14.44951 10.34547,-19.95506 1.23036,-3.48722 1.18894,-4.37499 -0.37107,-7.95242 l -1.75604,-4.02699 -3.24448,7.88118 C 826.77497,184.57808 820,205.96337 820,207.74789 c 0,0.96384 1.17531,-0.43839 4.25436,-5.07578 z m 25.52505,-9.85929 c -1.10045,-3.25861 -2.13521,-5.78706 -2.29946,-5.61878 -0.31377,0.32146 1.36748,10.24859 2.16406,12.77793 0.38217,1.21349 0.61044,1.23435 1.2999,0.11879 0.50079,-0.8103 0.0336,-3.73017 -1.1645,-7.27794 z M 837.15,163.5 c 0,-0.5225 -0.48375,-1.11125 -1.075,-1.30833 -0.59125,-0.19709 -1.075,0.39166 -1.075,1.30833 0,0.91667 0.48375,1.50542 1.075,1.30833 0.59125,-0.19708 1.075,-0.78583 1.075,-1.30833 z m -210.45687,81.7134 c -3.67888,-4.06511 -5.1178,-9.49254 -5.09386,-19.2134 0.0202,-8.2177 0.4918,-10.84979 3.49356,-19.5 6.47726,-18.66557 16.40017,-33.97802 28.35752,-43.75966 5.99809,-4.90671 6.27427,-5.31101 4.33786,-6.35041 -7.71342,-4.14031 -5.10759,-15.4371 3.61792,-15.68443 3.0398,-0.0862 4.34905,0.47113 6.2219,2.64845 1.30458,1.51667 2.37197,3.65483 2.37197,4.75147 0,3.08904 -2.75413,7.68177 -5.04197,8.4079 -1.8313,0.58123 -1.19783,1.51553 5.62075,8.29003 8.88206,8.82463 23.72924,25.06262 27.68662,30.28016 1.4949,1.97093 2.99974,4.99219 3.34408,6.7139 0.56398,2.81991 0.024,3.75744 -5.44484,9.45262 C 690.24459,217.41515 686.08855,224.46819 686,228.5 c -0.0919,4.18402 -3.78045,10.40679 -6.58603,11.11095 -3.65099,0.91634 -8.263,-1.67322 -11.37232,-6.38536 -1.35209,-2.04907 -2.59633,-3.91983 -2.76498,-4.15724 -0.16865,-0.2374 -1.86988,1.08352 -3.78053,2.93539 -3.02952,2.93633 -4.2748,3.42279 -9.73502,3.80295 -5.6095,0.39056 -6.78149,0.8755 -11.26112,4.65959 -8.18977,6.91818 -10.97535,7.87592 -13.80687,4.74712 z m 9.71102,-9.26338 c 4.05414,-3.55959 5.0221,-6.24918 6.63997,-18.45002 0.65639,-4.95 1.97237,-13.1625 2.92441,-18.25 0.95204,-5.0875 1.46109,-9.2356 1.13123,-9.21799 -1.49646,0.0799 -12.46669,15.1816 -15.71163,21.6288 -4.3713,8.68507 -5.53407,17.66081 -3.05617,23.59127 1.89904,4.54503 3.52998,4.68604 8.07219,0.69794 z m 43.52188,-3.36089 c 0.90118,-1.08586 0.77359,-3.56223 -0.55389,-10.75 -0.94864,-5.13652 -2.0317,-9.70288 -2.4068,-10.14746 -1.17785,-1.39603 -7.45818,9.45338 -7.09384,12.25477 0.95719,7.35981 6.88814,12.45795 10.05453,8.64269 z M 660,227.40113 c 2.23384,-2.19974 2.47991,-3.19431 2.31132,-9.34169 -0.10378,-3.78392 -1.13236,-12.07234 -2.28575,-18.41872 -1.15338,-6.34637 -2.15328,-15.38948 -2.22199,-20.09578 -0.0687,-4.7063 -0.29208,-8.38977 -0.49636,-8.18549 -1.99532,1.99532 -8.35352,35.01491 -9.87713,51.29417 -0.60425,6.45624 -0.48724,7.2034 1.2002,7.66418 3.46225,0.94543 8.85174,-0.43713 11.36971,-2.91667 z m 24.73423,-19.17963 c -1.37405,-2.04683 -2.98768,-4.6215 -3.58584,-5.7215 -1.43857,-2.64547 -1.46718,-0.67622 -0.10267,7.06634 1.59918,9.07416 1.78534,9.32824 4.12598,5.63146 l 2.0608,-3.25481 z m -12.31303,1.03539 c 4.95868,-5.53825 4.41332,-7.72837 -3.42663,-13.76107 -3.29701,-2.53699 -5.99276,-4.24891 -5.99055,-3.80427 0.009,1.89001 3.02007,19.20766 3.60362,20.72837 0.82605,2.15264 1.27082,1.91065 5.81356,-3.16303 z m 21.04233,-3.2166 C 696.7942,202.35995 692.75056,194.93302 681.46357,184 c -6.36149,-6.16199 -6.49007,-5.56432 -1.28955,5.9941 3.00572,6.68038 9.86351,17.98161 10.92099,17.99715 0.32726,0.005 1.39309,-0.87312 2.36852,-1.95096 z M 643.51557,187.5 c 5.50747,-6.2782 11.64967,-17.66809 10.2712,-19.04657 -1.11347,-1.11346 -12.23927,13.71011 -15.85129,21.1196 -4.15058,8.51428 -5.06657,11.52929 -2.24803,7.39948 0.9281,-1.35988 4.45075,-5.62251 7.82812,-9.47251 z m 25.46286,-3.183 c -0.6715,-2.09935 -2.13429,-5.98362 -3.25065,-8.63172 -2.33632,-5.54192 -3.68811,-4.75369 -3.71247,2.16472 -0.0129,3.65635 0.54812,4.91343 3.51802,7.88333 1.94334,1.94334 3.78819,3.27849 4.09967,2.96701 0.31148,-0.31149 0.0169,-2.28399 -0.65457,-4.38334 z M 663,162.5 c 0,-0.825 -0.675,-1.5 -1.5,-1.5 -0.825,0 -1.5,0.675 -1.5,1.5 0,0.825 0.675,1.5 1.5,1.5 0.825,0 1.5,-0.675 1.5,-1.5 z m 1.15877,-15.71327 c -0.48382,-0.78284 -4.85054,-0.60396 -5.51721,0.0627 -0.55,0.55 -1.38431,4.84594 -0.98516,5.49179 0.48382,0.78284 3.72873,2.25997 4.56934,1.83303 4.8154,-2.44573 2.33218,-6.74168 1.93303,-7.38753 z m -172.98446,7.89882 c -2.32042,-2.46997 -2.88417,-7.49064 -1.19542,-10.64611 1.17855,-2.20214 6.4066,-4.19147 8.79929,-3.34823 3.63609,1.28145 6.22182,4.61805 6.22182,8.02856 0,7.20988 -9.00609,11.09601 -13.82569,5.96578 z m 7.20069,-0.4833 c 0.44231,-0.26534 6.24535,-1.15903 2.77374,-8.68395 -0.67454,-1.09142 -0.32343,-1.37113 -1.46997,-1.82784 -7.96201,-3.17156 -7.29447,7.5091 -6.92493,8.10703 0.78966,1.27769 4.05701,3.34308 5.62116,2.40476 z m 250.07955,0.3432 c -6.57343,-6.57342 0.43193,-16.70886 9.05769,-13.10478 7.85186,3.28072 5.30133,15.55933 -3.23201,15.55933 -2.2459,0 -4.19043,-0.81929 -5.82568,-2.45455 z m 6.09758,-8.72475 c 0,-1.80866 -8.3554,2.78693 -1.39763,7.74165 -0.21599,1.04271 2.8075,0.48328 3.36967,-0.20232 5.73304,-6.99177 -1.97204,-6.89767 -1.97204,-7.53933 z m 76.36121,9.8975 c -4.28451,-3.28955 -4.73531,-9.75936 -0.92055,-13.21167 1.03368,-0.93548 3.54079,-1.74796 5.57135,-1.80551 7.29254,-0.20672 11.1361,8.68965 5.98131,13.84443 -2.69793,2.69794 -7.89847,3.27157 -10.63211,1.17275 z m 8.1933,-3.48123 c 5.91428,-10.73545 -7.93111,-6.0542 -8.59778,-5.38753 -0.55,0.55 0.98535,5.08291 1.3845,5.72876 0.48382,0.78284 3.66571,2.26273 4.33238,1.59606 0.55,-0.55 2.51454,-1.27229 2.8809,-1.93729 z M 655.18709,134 c -1.44785,-1.65 -3.17459,-3 -3.83719,-3 -0.66261,0 -2.08966,-1.125 -3.17124,-2.5 -1.08158,-1.375 -2.9736,-2.5 -4.2045,-2.5 -3.35701,0 -8.38128,-6.01779 -10.55237,-12.63906 -1.55547,-4.74377 -1.91746,-8.72013 -1.8991,-20.86094 0.0196,-12.95317 0.39293,-16.46988 2.73598,-25.77186 3.30225,-13.11008 7.47659,-23.16826 12.6303,-30.43308 3.66725,-5.16945 3.79971,-5.61184 2.47518,-8.26692 -3.54258,-7.10127 5.44882,-13.07231 11.12993,-7.3912 2.32678,2.32678 1.86704,7.12388 -0.93127,9.71727 -2.21022,2.04837 -2.34854,2.65326 -1.48524,6.49549 1.32422,5.89371 4.95464,11.26116 13.01436,19.24132 C 680.73695,65.64083 684,71.05467 684,77.50722 c 0,3.73341 -0.5404,5.69571 -2,7.26241 -1.1,1.18071 -2,3.29496 -2,4.69834 0,1.40338 -0.9465,3.3347 -2.10333,4.29182 -1.15683,0.95711 -3.17473,3.40752 -4.48422,5.44534 -1.68099,2.61594 -3.5614,4.05882 -6.39667,4.90829 -3.86942,1.1593 -4.01578,1.35812 -4.01578,5.45508 0,2.64823 -1.13121,6.64309 -2.99921,10.59171 -3.66846,7.75446 -3.73026,9.81941 -0.4119,13.76306 2.55435,3.03567 2.55982,3.07673 0.40977,3.07673 -1.19851,0 -3.36372,-1.35 -4.81157,-3 z m 0.10453,-18.00294 c 2.1967,-4.28775 1.89114,-10.26138 -1.10135,-21.53106 -4.41577,-16.6297 -5.06019,-36.56989 -1.70347,-52.71021 0.71557,-3.44068 1.15185,-6.41521 0.96952,-6.61006 -0.64367,-0.68784 -9.22625,17.45313 -11.75867,24.85427 -3.81102,11.1379 -5.00283,19.78413 -4.46041,32.35913 0.51737,11.99426 3.40687,22.21404 6.61037,23.37993 0.90881,0.33075 2.74734,1.44189 4.08561,2.4692 3.29345,2.52817 5.22818,1.94678 7.3584,-2.2112 z M 669,95.60313 c 0,-0.72957 -1.33584,-4.27263 -2.96853,-7.87346 -1.6327,-3.60083 -4.30236,-11.87557 -5.93258,-18.38832 -5.36696,-21.441 -5.10925,-21.04894 -4.55599,-6.93099 0.73795,18.83104 4.49785,34.36478 8.68036,35.86227 1.75932,0.6299 4.77674,-1.0564 4.77674,-2.6695 z m 5.79907,-6.81004 c 0.18938,-0.97596 -0.63578,-1.71988 -2.25,-2.02846 -2.87991,-0.55053 -2.96631,-0.41277 -1.48137,2.36188 1.18983,2.2232 3.27134,2.03721 3.73137,-0.33342 z m 3.60454,-8.99944 c 1.6442,-4.67526 -0.80858,-9.81203 -9.49819,-19.89171 -4.45794,-5.17107 -8.46065,-9.77973 -8.89491,-10.24147 -1.02234,-1.08702 1.18215,8.36933 3.97499,17.0511 4.48616,13.94557 11.78532,20.56837 14.41811,13.08208 z M 657.80287,25.37728 c 0.37447,-2.6245 -2.60476,-4.00396 -4.51716,-2.09157 -0.75849,0.7585 -1.06573,2.12397 -0.69518,3.08962 0.9349,2.43629 4.82871,1.69071 5.21234,-0.99805 z m 51.0974,106.74305 C 702.32976,126.79985 707.69467,97.49574 719.17462,76 c 4.83932,-9.06143 17.55105,-27.35391 23.29474,-33.52167 5.80635,-6.23506 7.34982,-5.96653 15.93119,2.77167 13.29855,13.5416 19.4895,25.38041 20.35661,38.92753 0.58541,9.14594 -1.48092,14.5333 -7.74481,20.19235 -6.83898,6.17861 -14.67482,6.8138 -19.87731,1.61131 l -2.74477,-2.74477 -2.69829,5.15367 c -5.75986,11.00119 -16.07588,21.06997 -24.70753,24.1154 -5.66425,1.99846 -9.28297,1.88312 -12.08418,-0.38516 z m 15.49131,-15.38678 c 2.14036,-1.22845 5.03257,-3.72463 6.42713,-5.54706 l 2.53556,-3.31351 -2.69654,0.67679 c -3.55845,0.89311 -8.05686,-1.05851 -9.75546,-4.23238 -0.7824,-1.46194 -1.31028,-5.16876 -1.23667,-8.68406 l 0.12843,-6.13333 -2.03785,5 c -1.22772,3.01228 -2.23042,8.27841 -2.52224,13.24665 -0.68015,11.57939 1.28336,13.5063 9.15764,8.9869 z m 42.71054,-18.00348 c 6.60303,-4.41111 8.84552,-14.65023 5.2475,-23.95983 -1.66492,-4.30786 -4.3371,-8.20546 -2.92765,-4.27024 1.67257,4.66988 2.39634,11.37171 1.60637,14.87435 -1.08194,4.79716 -5.38227,11.01349 -9.39941,13.58726 l -3.12893,2.0047 2.60212,0.0168 c 1.43116,0.009 4.13116,-1.00462 6,-2.25308 z M 742.05539,85.97036 c 1.05815,-0.56631 2.65902,-2.45119 3.55748,-4.18863 l 1.63358,-3.15898 1.40205,2.67592 c 2.61321,4.98748 9.63587,4.40082 10.97042,-0.91645 1.58361,-6.3096 -3.66677,-25.56667 -8.61348,-31.59209 -2.64396,-3.22051 -4.48156,-1.83246 -10.29861,7.77918 -7.12798,11.77773 -10.16416,24.76487 -6.75105,28.87741 1.47876,1.7818 5.28849,2.0281 8.09961,0.52364 z M 750,42.5 c 0,-0.825 -0.675,-1.5 -1.5,-1.5 -0.825,0 -1.5,0.675 -1.5,1.5 0,0.825 0.675,1.5 1.5,1.5 0.825,0 1.5,-0.675 1.5,-1.5 z m -255.11987,87.253 c -6.44101,-4.89225 -11.61599,-15.64657 -12.7834,-26.56568 -0.48881,-4.57197 -1.15129,-8.57521 -1.47217,-8.89609 -0.32087,-0.32088 -2.90835,-0.95094 -5.74995,-1.40013 C 469.29542,92.00914 465,88.90712 465,85.75994 c 0,-2.79122 1.75389,-5.65462 6.99234,-11.41567 6.76757,-7.44271 11.90296,-15.57661 16.31695,-25.84427 2.12798,-4.95 4.57366,-9.7875 5.43486,-10.75 C 495.18305,36.14185 495.13989,36 493.21169,36 490.35036,36 488,32.32456 488,27.85007 c 0,-7.04041 8.51057,-10.4304 13.54545,-5.39552 C 505.93234,26.84143 503.76841,36 498.34501,36 c -1.49073,0 -1.50356,0.17369 -0.12929,1.75 3.60625,4.13642 10.32345,30.79203 11.65499,46.25 1.08955,12.64874 -0.008,26.12084 -2.85114,35 -2.50721,7.82978 -5.11853,13.22485 -6.63944,13.71731 -0.61593,0.19943 -3.09093,-1.13451 -5.5,-2.96431 z m 5.9295,-4.503 c -0.18536,-0.9625 -0.99969,-1.75 -1.80963,-1.75 -0.80994,0 -1.62427,0.7875 -1.80963,1.75 -0.23646,1.22785 0.30348,1.75 1.80963,1.75 1.50615,0 2.04609,-0.52215 1.80963,-1.75 z M 494.15,119.5 c 0,-0.5225 -0.48375,-1.11125 -1.075,-1.30833 -0.59125,-0.19709 -1.075,0.39166 -1.075,1.30833 0,0.91667 0.48375,1.50542 1.075,1.30833 0.59125,-0.19708 1.075,-0.78583 1.075,-1.30833 z m -3.84718,-6.9863 c 0.10845,-0.54247 -0.59032,-1.13797 -1.55282,-1.32333 -1.0946,-0.2108 -1.75,0.27967 -1.75,1.30963 0,1.73979 2.9553,1.75204 3.30282,0.0137 z m 14.29219,-10.62084 c 1.54055,-1.70403 1.87284,-3.47363 1.73692,-9.25 C 506.23953,88.71429 505.7377,84.375 505.21682,83 c -0.93487,-2.46784 -0.95679,-2.45497 -1.70397,1 -0.41631,1.925 -1.60201,5.16957 -2.63489,7.21016 -1.83062,3.61663 -2.54709,10.78738 -1.21129,12.12317 1.21484,1.21485 2.9993,0.69328 4.92834,-1.44047 z M 478.36432,86.14162 c 2.43534,-2.54194 6.07058,-11.3661 8.04332,-19.52429 0.62332,-2.57771 0.0222,-2.20744 -5.68216,3.5 C 472.88034,77.96671 470,82.04968 470,85.32104 c 0,4.43931 4.4766,4.87849 8.36432,0.82058 z m 20.29729,-0.61716 c 1.15865,-0.81154 2.40478,-3.06482 2.76919,-5.00728 0.85028,-4.53241 -0.96645,-17.80315 -3.60797,-26.35524 l -2.0577,-6.66194 -1.95554,4.97831 c -3.28907,8.37314 -6.05028,21.64865 -5.50812,26.48223 0.76795,6.84658 5.59252,9.9033 10.36014,6.56392 z M 497,41.5 c 0,-0.825 -0.42344,-1.5 -0.94098,-1.5 -1.26098,0 -2.1641,1.56159 -1.36517,2.36052 C 495.82004,43.4867 497,43.04641 497,41.5 Z m 1.92308,-9 c 4.375,-6.065385 -2.49075,-8.807692 -3.00829,-8.807692 -0.63049,0 -3.61142,1.916839 -4.31563,4.029699 -0.70421,2.11286 0.29138,4.614048 0.69084,5.013513 1.12619,1.12618 5.72842,1.018667 6.63308,-0.23552 z m 328.14673,96.2566 c 0.5116,-1.78387 0.93019,-5.76732 0.93019,-8.85211 0,-7.26704 -2.49566,-11.06566 -10.91198,-16.60899 -8.67129,-5.71127 -11.75453,-8.85541 -13.71315,-13.98399 -2.61215,-6.8398 -1.38861,-15.04339 4.04775,-27.13933 7.54409,-16.78568 8.17622,-22.85014 2.95038,-28.30474 -2.81856,-2.94194 -2.49774,-4.48932 1.22414,-5.90437 C 813.18685,27.35866 814,26.25979 814,24.71588 c 0,-3.61773 2.33339,-6.04921 5.80517,-6.04921 4.15002,0 6.19483,1.91365 6.19483,5.79749 0,2.88214 0.41329,3.34309 3.94654,4.40168 7.28453,2.18249 21.80188,10.10244 26.86949,14.65867 C 864.91346,50.80479 868,56.2358 868,63.20356 c 0,7.30257 -1.75438,11.62296 -6.11403,15.05661 C 855.51932,83.27455 855,83.96084 855,87.3601 c 0,3.33066 -0.0474,3.36499 -5.41087,3.91855 C 839.46698,92.32334 837,95.85154 837,109.2832 c 0,9.60714 -1.31125,14.42554 -5.21423,19.16054 -3.82666,4.64239 -5.99899,4.7865 -4.71596,0.31286 z m 1.67332,-34.19391 c 1.59312,-1.34053 3.72942,-4.28421 4.74733,-6.54153 1.36452,-3.02596 2.26568,-3.93213 3.43014,-3.44923 4.03216,1.67214 5.29986,1.56958 7.62743,-0.61705 C 846.30816,82.30132 847,80.58962 847,77.88837 c 0,-3.76224 8.6e-4,-3.763 4.19764,-3.70508 3.48068,0.048 4.67628,-0.47776 7,-3.07846 C 860.55201,68.46983 861,67.0838 861,62.43456 c 0,-6.90288 -1.42868,-9.69735 -8.16268,-15.96604 L 847.5,41.5 847.1683,44.99599 C 846.74036,49.50616 845.43015,51 841.90231,51 c -2.6491,0 -2.78317,0.18316 -1.87756,2.5651 3.38793,8.91093 -3.93587,17.16511 -11.64595,13.12539 -2.62535,-1.37556 -2.8922,-1.28853 -5.93198,1.93458 -3.67072,3.89209 -6.10778,4.21606 -9.80977,1.30407 l -2.63267,-2.07086 -1.09758,2.82086 c -0.60367,1.55147 -1.31232,5.29586 -1.57477,8.32086 -0.38371,4.42256 -0.0222,6.38154 1.84539,10 4.01207,7.77339 13.67389,10.52032 19.56571,5.56269 z m -9.35384,-31.09484 c 3.08336,-3.08336 3.32878,-14.4655 0.42602,-19.75817 -1.09027,-1.98793 -1.4442,-1.25633 -3.52681,7.29032 -1.70753,7.00743 -2.0547,10.09035 -1.32314,11.75 1.16356,2.63975 2.31516,2.82662 4.42393,0.71785 z m 14.22593,-2.23316 c 1.94125,-1.27886 2.52449,-5.00214 1.42386,-9.08958 -0.76029,-2.82348 -2.7918,-5.5524 -7.10879,-9.54916 C 824.60593,39.51818 821.49333,37 821.0134,37 c -0.47994,0 0.18092,1.9125 1.46857,4.25 1.28764,2.3375 3.3293,7.625 4.53701,11.75 1.20771,4.125 2.39906,7.8375 2.64745,8.25 0.57096,0.94821 2.49754,0.94074 3.94879,-0.0153 z m 7.18894,-17.87746 c 0.63617,-4.43899 -13.46495,-12.44417 -21.64314,-12.28677 l -3.66102,0.0705 3.7374,1.37283 c 4.61566,1.69543 11.29219,6.26247 15.22986,10.41788 3.29811,3.4805 5.87429,3.65352 6.3369,0.4256 z M 821.66417,25.43278 c 0.83346,-2.17196 -1.28244,-4.21451 -2.79695,-2.7 C 817.58718,24.01282 818.38017,27 820,27 c 0.58452,0 1.3334,-0.70525 1.66417,-1.56722 z m -263.49374,97.45591 c 7.57554,-7.11854 7.42682,-12.51235 -0.53728,-19.48648 C 548.88033,95.7374 547.8506,94.62748 545.84486,90.6959 540.27977,79.78743 544.01777,61.52579 555.13295,45.31982 556.70983,43.02073 558,40.80616 558,40.39857 c 0,-0.4076 0.74474,-1.56402 1.65499,-2.56983 C 561.04546,36.29229 561.07332,36 559.8293,36 557.26981,36 554,31.59116 554,28.14009 554,23.93779 557.82106,20 561.89878,20 566.39901,20 570.4,23.91601 570.4,28.32067 570.4,32.0268 567.78022,36 565.33654,36 c -0.95967,0 -1.09586,0.50919 -0.46807,1.75 0.48698,0.9625 2.80951,5.71122 5.16117,10.55271 5.15786,10.61877 9.25653,14.45515 22.43448,20.99885 5.10598,2.53545 10.42724,5.96905 11.82502,7.63022 7.40108,8.79568 1.49217,18.37525 -10.35419,16.78632 -5.10743,-0.68505 -6.44929,0.63812 -7.80024,7.69162 -2.64126,13.79047 -12.424,22.39293 -28.63471,25.17996 l -4,0.6877 z m 17.60753,-13.15234 c 5.22471,-5.56145 6.74301,-15.83497 3.32908,-22.52619 -1.04113,-2.04059 -4.70671,-7.06951 -8.14572,-11.17537 C 562.8648,66.36828 560.032,60.29824 559.97797,52.5 c -0.0389,-5.61625 -0.14071,-5.87208 -1.5915,-4 -0.85246,1.1 -3.1574,5.15 -5.12208,9 -2.79718,5.48134 -3.67286,8.52738 -4.03632,14.04022 -0.66935,10.15254 1.65272,14.94651 12.2791,25.35038 4.81136,4.71062 8.93942,9.70243 9.65106,11.67044 1.46781,4.05915 1.82511,4.15005 4.61973,1.17531 z M 597.8,86.8 c 1.84094,-1.84094 1.44532,-7.26801 -0.66933,-9.18174 -1.02813,-0.93045 -4.95039,-3.26956 -8.71613,-5.19803 C 578.30843,67.24481 571.74898,61.8738 567.18187,55.0345 l -4.06462,-6.08682 0.52242,3.77616 C 565.5773,66.72961 583.82722,87.88595 594.05,87.97723 595.4525,87.98973 597.14,87.46 597.8,86.8 Z M 563.77083,41.1875 C 563.98854,40.53437 563.45417,40 562.58333,40 561.7125,40 561,40.7125 561,41.58333 c 0,1.76593 2.15276,1.45839 2.77083,-0.39583 z m 3.01763,-12.245192 c 0,-0.825 -3.84808,-5.25 -4.67308,-5.25 -0.825,0 -4,4.713461 -4,5.538461 0,0.825 3.55962,4.769231 4.38462,4.769231 0.825,0 4.28846,-4.232692 4.28846,-5.057692 z M 745.357,36.02995 C 742.59865,34.88911 740,31.16564 740,28.35422 740,24.89631 744.69287,20 748.00711,20 c 4.19162,0 5.90291,0.92532 7.52988,4.07152 2.0381,3.94125 1.83032,6.40588 -0.78699,9.33507 -2.57233,2.87886 -6.27499,3.91297 -9.393,2.62336 z m 7.72357,-7.558386 c 0,-0.825 -3.99254,-3.869668 -4.81754,-3.869668 -0.825,0 -8.26303,3.752324 -1.26303,7.898104 0.70985,0.420409 3.04467,0.7891 3.86967,0.7891 0.825,0 2.2109,-3.992536 2.2109,-4.817536 z"
     id="path988"
     inkscape:connector-curvature="0"
     sodipodi:nodetypes="ccsscccscssscscccccccscccsccccsccccssccscscccsccccccccccsccsccsscscccsccccsccsccsccccscccccsccccccccscccccccsscsscsccccscsscscssccscsccccscccccscccccccccccccscscscssscccccsccccsccccsssccccccccsccccccssccsscsccsccsccccsscccsscsssccccccscccccccccssccsccscccccccccccccccsccscccsccsccssccccssscsccssccccccccsssccsscccccsccccscsccccsscccccssccccscsscssssssssscsscsccscsssscsccccsscccscccsccccccscccsscssssccscscscsccscsscsccsccccscsccsscccssscsccsccssscsscsscscccsccsscssccscccccccscsscssccsscsscsssssssccsscscsccsscccsssccccsccsccssccssssssccccsccscscsscsscscsssscsccsscccccscccccsccccscccsscccsscsssssccsssscccsscscsccsssccssscscccccccsccsscccccscscccccssccccsscccsccccssccccssccccsccssssssscscsscssscscscsscsccsccccccscscsssscsscssccsscscccsssssssccssccsscsssscsccsccsscsccsscsssscscssccccsccssccccscccccsccscsccsssssscccsscssscsssccscscscscscscsscscscscsccssccsscsscsscsscscsccscsscsssccscssscccsccscsssccssscscccscscccscccscsccccscscccssssssscscssssscsscscscsssscccsscsscsscccscsscscssscsscccssssss" />
  <g
     inkscape:groupmode="layer"
     id="layer1"
     inkscape:label="Layer 1"
     transform="translate(0,-684)" />
</svg>
