<?xml version="1.0" encoding="UTF-8" standalone="no"?>
<!-- Created with Inkscape (http://www.inkscape.org/) -->

<svg
   xmlns:dc="http://purl.org/dc/elements/1.1/"
   xmlns:cc="http://creativecommons.org/ns#"
   xmlns:rdf="http://www.w3.org/1999/02/22-rdf-syntax-ns#"
   xmlns:svg="http://www.w3.org/2000/svg"
   xmlns="http://www.w3.org/2000/svg"
   xmlns:sodipodi="http://sodipodi.sourceforge.net/DTD/sodipodi-0.dtd"
   xmlns:inkscape="http://www.inkscape.org/namespaces/inkscape"
   width="2in"
   height="2in"
   viewBox="0 0 50.800001 50.800001"
   version="1.1"
   id="svg831"
   inkscape:version="0.92.5 (2060ec1f9f, 2020-04-08)"
   sodipodi:docname="butterfly1.svg">
  <defs
     id="defs825" />
  <sodipodi:namedview
     id="base"
     pagecolor="#ffffff"
     bordercolor="#666666"
     borderopacity="1.0"
     inkscape:pageopacity="0.0"
     inkscape:pageshadow="2"
     inkscape:zoom="1.979899"
     inkscape:cx="-54.796043"
     inkscape:cy="172.77549"
     inkscape:document-units="mm"
     inkscape:current-layer="layer1"
     showgrid="false"
     units="in"
     inkscape:window-width="1880"
     inkscape:window-height="1055"
     inkscape:window-x="40"
     inkscape:window-y="0"
     inkscape:window-maximized="1" />
  <metadata
     id="metadata828">
    <rdf:RDF>
      <cc:Work
         rdf:about="">
        <dc:format>image/svg+xml</dc:format>
        <dc:type
           rdf:resource="http://purl.org/dc/dcmitype/StillImage" />
        <dc:title></dc:title>
      </cc:Work>
    </rdf:RDF>
  </metadata>
  <g
     inkscape:label="Layer 1"
     inkscape:groupmode="layer"
     id="layer1"
     transform="translate(0,-246.19998)">
    <path
       style="fill:#000000;stroke-width:0.46848333"
       d="m 22.498802,294.47673 c -2.176908,-1.65845 -5.755374,-6.54902 -7.715576,-10.54464 -0.798007,-1.62665 -1.637588,-2.95754 -1.865724,-2.95754 -0.228138,0 -1.432036,-0.87553 -2.67533,-1.94561 -2.0481886,-1.76288 -2.2605318,-2.13773 -2.2605318,-3.99065 0,-2.69731 1.2656844,-4.3869 7.5303368,-10.05251 4.164523,-3.76629 5.267269,-5.06816 6.73362,-7.94962 0.964437,-1.89517 2.026038,-3.60142 2.359115,-3.79169 1.466294,-0.83756 5.82871,6.29022 8.012989,13.09248 1.583457,4.93119 2.180212,14.22323 1.207577,18.80303 -0.801392,3.77348 -2.664299,7.90473 -4.257565,9.44176 -1.855407,1.7899 -4.635822,1.74861 -7.068911,-0.10503 z m 5.758634,-2.58026 c 0.745831,-0.90808 0.896306,-3.53804 0.22439,-3.92186 -0.729345,-0.41661 -1.982565,1.6276 -1.982565,3.23389 0,1.6204 0.750987,1.91426 1.758175,0.68797 z m -3.255462,-3.10085 c 1.176551,-1.38244 1.307767,-2.41641 0.306652,-2.41641 -0.863193,0 -2.220506,1.7131 -2.220506,2.80254 0,1.14024 0.742235,0.99049 1.913854,-0.38613 z m 6.029469,-2.71335 c -0.282963,-0.68153 -1.121042,-0.82377 -1.121042,-0.19028 0,0.22746 0.14016,0.75114 0.311467,1.16373 0.232109,0.55904 0.406867,0.60752 0.685873,0.19028 0.205924,-0.30796 0.261591,-0.83164 0.123694,-1.16373 z m -7.762855,-0.25365 c 0.386166,-0.56675 0.372975,-0.91959 -0.04894,-1.30954 -0.757337,-0.69997 -2.080752,0.25277 -2.080752,1.49793 0,1.06874 1.354788,0.94892 2.129692,-0.18839 z m 6.531,-3.23941 c 1.605045,-1.42019 2.286619,-5.80986 1.538551,-9.90893 -0.699382,-3.83225 -1.702646,-6.56801 -4.138946,-11.28626 -1.803485,-3.4927 -1.86548,-3.55483 -2.247817,-2.25194 -0.216245,0.73691 -0.272519,2.55587 -0.125057,4.04216 0.199804,2.01373 0.0062,3.50568 -0.759285,5.85503 -1.463101,4.4897 -1.849101,10.84532 -0.775235,12.76462 1.375556,2.45852 4.227806,2.80272 6.507783,0.78532 z m -8.256554,0.0283 c 0.123989,-0.59501 -0.07599,-0.77984 -0.719766,-0.66524 -0.490292,0.0874 -0.968699,0.52943 -1.06312,0.98258 -0.12399,0.595 0.07599,0.77983 0.719766,0.66524 0.490292,-0.0874 0.968699,-0.52944 1.06312,-0.98258 z m -0.891444,-3.2744 c 0,-0.7125 -0.43913,-0.77742 -1.411101,-0.2086 -0.3981,0.23297 -0.547264,0.71806 -0.35971,1.16979 0.260504,0.62745 0.456041,0.66775 1.045617,0.21551 0.398855,-0.30595 0.725194,-0.83546 0.725194,-1.1767 z m 0,-2.68471 c 0,-0.79535 -1.049052,-0.65683 -1.350241,0.17827 -0.106087,0.29417 0.154305,0.53484 0.578676,0.53484 0.424361,0 0.771565,-0.3209 0.771565,-0.71311 z m -3.61326,-0.86068 c 1.81537,-1.67784 3.954375,-6.21465 4.601244,-9.75918 0.315,-1.72604 0.478934,-3.22494 0.3643,-3.33089 -0.114634,-0.10588 -0.84955,0.59174 -1.633142,1.55043 -0.783593,0.95867 -2.910883,3.32541 -4.727315,5.25943 -3.720677,3.9615 -4.297984,5.21031 -3.0146,6.52098 1.179631,1.20473 2.950116,1.10807 4.409513,-0.24077 z m 8.880222,-20.07861 c -0.09603,-0.26628 -0.382939,-0.48417 -0.637557,-0.48417 -0.254617,0 -0.541518,0.21789 -0.637555,0.48417 -0.09605,0.2663 0.190856,0.48417 0.637555,0.48417 0.4467,0 0.7336,-0.21787 0.637557,-0.48417 z"
       id="path988"
       inkscape:connector-curvature="0"
       sodipodi:nodetypes="scsscsccscsssccscsccsccccscccsccscccscccsscssscccssccsssccscscsscc" />
    <path
       style="color:#000000;font-style:normal;font-variant:normal;font-weight:normal;font-stretch:normal;font-size:medium;line-height:normal;font-family:sans-serif;font-variant-ligatures:normal;font-variant-position:normal;font-variant-caps:normal;font-variant-numeric:normal;font-variant-alternates:normal;font-feature-settings:normal;text-indent:0;text-align:start;text-decoration:none;text-decoration-line:none;text-decoration-style:solid;text-decoration-color:#000000;letter-spacing:normal;word-spacing:normal;text-transform:none;writing-mode:lr-tb;direction:ltr;text-orientation:mixed;dominant-baseline:auto;baseline-shift:baseline;text-anchor:start;white-space:normal;shape-padding:0;clip-rule:nonzero;display:inline;overflow:visible;visibility:visible;opacity:1;isolation:auto;mix-blend-mode:normal;color-interpolation:sRGB;color-interpolation-filters:linearRGB;solid-color:#000000;solid-opacity:1;vector-effect:none;fill:#000000;fill-opacity:1;fill-rule:nonzero;stroke:none;stroke-width:1.06953502;stroke-linecap:butt;stroke-linejoin:miter;stroke-miterlimit:4;stroke-dasharray:none;stroke-dashoffset:0;stroke-opacity:1;color-rendering:auto;image-rendering:auto;shape-rendering:auto;text-rendering:auto;enable-background:accumulate"
       d="m 24.183594,248.42578 c -1.650521,0 -3,1.34948 -3,3 0,1.65052 1.349479,3 3,3 1.65052,0 3,-1.34948 3,-3 0,-1.65052 -1.34948,-3 -3,-3 z m 0,1.06934 c 1.072501,0 1.930663,0.85816 1.930663,1.93066 0,1.0725 -0.858162,1.93067 -1.930663,1.93067 -1.072501,0 -1.930664,-0.85817 -1.930664,-1.93067 0,-1.0725 0.858163,-1.93066 1.930664,-1.93066 z"
       id="path1385"
       inkscape:connector-curvature="0" />
  </g>
</svg>
