<?xml version="1.0" encoding="UTF-8" standalone="no"?>
<!-- Created with Inkscape (http://www.inkscape.org/) -->

<svg
   xmlns:dc="http://purl.org/dc/elements/1.1/"
   xmlns:cc="http://creativecommons.org/ns#"
   xmlns:rdf="http://www.w3.org/1999/02/22-rdf-syntax-ns#"
   xmlns:svg="http://www.w3.org/2000/svg"
   xmlns="http://www.w3.org/2000/svg"
   xmlns:sodipodi="http://sodipodi.sourceforge.net/DTD/sodipodi-0.dtd"
   xmlns:inkscape="http://www.inkscape.org/namespaces/inkscape"
   width="1.5in"
   height="1.5in"
   viewBox="0 0 38.1 38.100001"
   version="1.1"
   id="svg8"
   inkscape:version="0.92.5 (2060ec1f9f, 2020-04-08)"
   sodipodi:docname="defcon.svg">
  <defs
     id="defs2" />
  <sodipodi:namedview
     id="base"
     pagecolor="#ffffff"
     bordercolor="#666666"
     borderopacity="1.0"
     inkscape:pageopacity="0.0"
     inkscape:pageshadow="2"
     inkscape:zoom="3.959798"
     inkscape:cx="61.434375"
     inkscape:cy="76.942764"
     inkscape:document-units="mm"
     inkscape:current-layer="layer1"
     showgrid="false"
     units="in"
     inkscape:window-width="1880"
     inkscape:window-height="1049"
     inkscape:window-x="40"
     inkscape:window-y="0"
     inkscape:window-maximized="1"
     showguides="false" />
  <metadata
     id="metadata5">
    <rdf:RDF>
      <cc:Work
         rdf:about="">
        <dc:format>image/svg+xml</dc:format>
        <dc:type
           rdf:resource="http://purl.org/dc/dcmitype/StillImage" />
        <dc:title></dc:title>
      </cc:Work>
    </rdf:RDF>
  </metadata>
  <g
     inkscape:label="Layer 1"
     inkscape:groupmode="layer"
     id="layer1"
     transform="translate(0,-258.89998)">
    <path
       style="fill:#000000;stroke-width:0.06780387"
       d="m 8.6792905,290.90104 c -1.029369,-0.26125 -1.561854,-1.41358 -1.120306,-2.42442 0.07883,-0.18046 0.14332,-0.36572 0.14332,-0.4117 0,-0.0501 -0.181244,-0.114 -0.452852,-0.15957 -0.586569,-0.0984 -0.927913,-0.33847 -1.183657,-0.83237 -0.177653,-0.34309 -0.191864,-0.42314 -0.171367,-0.96539 0.02,-0.52904 0.04385,-0.62224 0.226568,-0.8854 0.44663,-0.64325 1.26375,-0.90871 1.874905,-0.60911 0.326696,0.16016 0.8518352,0.68792 0.8518352,0.85609 0,0.0571 0.01757,0.10387 0.03904,0.10387 0.14713,0 1.3382733,-0.56169 3.9821213,-1.87781 1.674298,-0.83346 3.113988,-1.53388 3.19931,-1.55647 0.09849,-0.0261 0.130955,-0.0641 0.08892,-0.10398 -0.08924,-0.0848 -8.6671965,-4.85428 -8.7304125,-4.85428 -0.0274,0 -0.160002,0.15199 -0.294665,0.33776 -0.346203,0.4776 -0.839852,0.71749 -1.375293,0.66832 -0.464057,-0.0426 -0.727324,-0.16883 -1.046636,-0.50178 -0.317114,-0.33066 -0.470396,-0.81484 -0.427857,-1.35151 0.07288,-0.9195 0.750105,-1.60732 1.583982,-1.60877 0.120439,-2e-4 0.218979,-0.017 0.218979,-0.0372 0,-0.0203 -0.064,-0.16389 -0.142231,-0.31917 -0.181396,-0.36007 -0.238667,-0.98105 -0.127547,-1.38296 0.04706,-0.1702 0.203099,-0.44462 0.346862,-0.61002 0.662041,-0.76165 1.644504,-0.78361 2.296472,-0.0513 0.5302872,0.59561 0.6188172,1.2574 0.269368,2.01361 l -0.208522,0.45125 0.5851702,0.33388 c 1.0150363,0.57915 2.1743073,1.18783 2.2043513,1.15741 0.01591,-0.0161 -0.01929,-0.28813 -0.07821,-0.60449 -0.08089,-0.43428 -0.09967,-0.85112 -0.07666,-1.70147 0.02818,-1.04168 0.04698,-1.1775 0.250292,-1.80858 0.830963,-2.57931 2.702615,-4.35034 5.391739,-5.10187 0.427648,-0.11951 0.703362,-0.1421 1.753913,-0.1437 1.135575,-0.002 1.303903,0.0139 1.891564,0.17556 1.401324,0.38549 2.524625,1.03304 3.480761,2.00657 0.888516,0.90467 1.496787,1.94246 1.884167,3.21463 0.170125,0.5587 0.182622,0.68499 0.184231,1.86165 0.0019,1.37588 -0.111454,2.06421 -0.470732,2.85892 -0.09169,0.20282 -0.1587,0.3756 -0.148902,0.38394 0.0098,0.008 0.843854,-0.39313 1.853459,-0.89217 l 1.835644,-0.90734 -0.201666,-0.43169 c -0.370681,-0.79348 -0.222334,-1.62578 0.389291,-2.18412 0.42479,-0.38778 0.899768,-0.48408 1.43841,-0.29162 0.895268,0.31987 1.328557,1.4786 0.900827,2.40905 -0.09228,0.20075 -0.167788,0.37334 -0.167788,0.38354 0,0.0102 0.155759,0.0395 0.34613,0.065 0.480653,0.0646 0.966609,0.32998 1.166964,0.63734 0.09138,0.14018 0.213093,0.44102 0.270476,0.66852 0.492747,1.95353 -1.986878,3.00847 -2.876834,1.22393 -0.07486,-0.15011 -0.144397,-0.28254 -0.154525,-0.29428 -0.01013,-0.0117 -1.842089,0.88636 -4.071023,1.99579 -2.228935,1.10942 -4.065725,2.01714 -4.081755,2.01714 -0.01603,0 -0.122649,0.0576 -0.236932,0.12796 l -0.207786,0.12796 0.425137,0.23704 c 0.233825,0.13037 1.334745,0.74419 2.446488,1.36405 1.111743,0.61985 2.343283,1.30052 2.736757,1.51259 l 0.715406,0.38559 0.191461,-0.25709 c 0.242125,-0.32511 0.335447,-0.40417 0.668591,-0.56637 0.663869,-0.32323 1.524046,-0.009 1.894651,0.69225 0.178294,0.33734 0.165657,1.03352 -0.02544,1.40153 -0.309424,0.59589 -1.02085,0.94477 -1.597643,0.78349 -0.145196,-0.0406 -0.271855,-0.0659 -0.281464,-0.0561 -0.0096,0.01 0.07207,0.19745 0.181501,0.41716 0.172679,0.34668 0.198974,0.47425 0.198974,0.96538 0,0.31125 -0.03201,0.65235 -0.07114,0.758 -0.210745,0.56898 -0.783809,1.05862 -1.238988,1.05862 -0.480775,0 -1.001192,-0.46259 -1.220334,-1.08475 -0.123154,-0.34964 -0.120548,-1.09664 0.0051,-1.45722 0.05631,-0.16161 0.07905,-0.31726 0.05053,-0.34588 -0.130588,-0.1311 -7.917389,-4.42662 -8.024454,-4.42662 -0.06659,0 -0.189105,0.0642 -0.272265,0.14264 -0.08316,0.0785 -1.990582,1.06266 -4.238715,2.18711 -2.248134,1.12445 -4.09905,2.05614 -4.113147,2.07041 -0.0141,0.0143 0.05264,0.12987 0.148298,0.25688 0.642885,0.85354 0.429575,2.08962 -0.4489613,2.6016 -0.321525,0.18737 -0.726721,0.26031 -1.0252362,0.18455 z M 19.35876,279.56945 c 1.39245,-0.13896 2.81548,-0.88621 3.608442,-1.89483 0.393358,-0.50034 0.746585,-1.20058 0.87853,-1.7416 0.174295,-0.71467 0.232949,-0.85963 0.364986,-0.90207 0.216258,-0.0695 0.237055,-0.30174 0.04448,-0.49675 -0.383282,-0.38814 -1.364137,-0.20714 -1.312862,0.24227 0.01405,0.12311 0.08347,0.21558 0.206453,0.27499 0.214526,0.10364 0.224625,0.1947 0.07773,0.70084 -0.326763,1.12588 -1.274597,2.26293 -2.318062,2.78082 -0.816233,0.40511 -1.299998,0.51744 -2.223485,0.51627 -0.917759,-0.001 -1.396498,-0.11361 -2.223486,-0.52228 -0.45944,-0.22704 -0.686232,-0.39833 -1.146642,-0.86599 -0.592501,-0.60184 -0.89806,-1.0866 -1.147265,-1.82011 -0.169882,-0.50002 -0.168666,-0.6864 0.0048,-0.74217 0.0751,-0.0241 0.18522,-0.11911 0.244704,-0.21104 0.100216,-0.15489 0.0993,-0.17706 -0.01249,-0.30216 -0.355973,-0.39833 -1.379436,-0.27331 -1.379436,0.1685 0,0.0956 0.07006,0.21517 0.16901,0.28841 0.128779,0.0953 0.209249,0.27755 0.338053,0.76556 0.245039,0.9284 0.569228,1.50804 1.21009,2.16361 0.609367,0.62336 1.221887,1.01974 2.047031,1.32469 0.834688,0.30848 1.502787,0.37948 2.569381,0.27304 z m -2.669115,-6.37478 c 0.706783,-0.21541 1.051401,-0.65709 1.051783,-1.34803 2.02e-4,-0.40896 -0.02208,-0.48491 -0.21935,-0.74683 -0.309172,-0.41049 -0.762339,-0.63222 -1.28643,-0.62946 -0.50298,0.003 -0.820259,0.13129 -1.136098,0.46062 -0.744169,0.77595 -0.315201,2.0735 0.755536,2.28535 0.436778,0.0864 0.483968,0.0852 0.834559,-0.0216 z m 5.431628,-0.0839 c 0.599107,-0.25231 0.956256,-0.93706 0.805328,-1.54404 -0.238914,-0.96084 -1.36421,-1.40475 -2.2806,-0.89967 -0.523252,0.2884 -0.714525,0.60898 -0.714525,1.19756 0,0.40086 0.02586,0.49675 0.202135,0.74946 0.419854,0.60192 1.246992,0.8086 1.987662,0.49669 z"
       id="path869"
       inkscape:connector-curvature="0"
       sodipodi:nodetypes="ccscccccsscccscccccsccccccccccsccscccccccccccsccccccscccccccccccccscscccscscccccccscccccscscccccscscccccccccccccccscc" />
  </g>
</svg>
